<?xml version="1.0" encoding="UTF-8"?>
<svg version="1.1" xmlns="http://www.w3.org/2000/svg" width="409" height="307">
<path d="M0 0 C134.97 0 269.94 0 409 0 C409 101.31 409 202.62 409 307 C274.03 307 139.06 307 0 307 C0 205.69 0 104.38 0 0 Z " fill="#A1CBE4" transform="translate(0,0)"/>
<path d="M0 0 C45.54 0 91.08 0 138 0 C138 7.26 138 14.52 138 22 C137.01 22.33 136.02 22.66 135 23 C134.01 25.31 133.02 27.62 132 30 C119.46 30 106.92 30 94 30 C94 30.99 94 31.98 94 33 C106.21 33 118.42 33 131 33 C131 33.66 131 34.32 131 35 C114.5 35 98 35 81 35 C81 35.99 81 36.98 81 38 C97.5 38 114 38 131 38 C131 38.99 131 39.98 131 41 C114.5 41 98 41 81 41 C81 41.99 81 42.98 81 44 C97.5 44 114 44 131 44 C131 44.66 131 45.32 131 46 C114.5 46 98 46 81 46 C81 46.99 81 47.98 81 49 C97.5 49 114 49 131 49 C131 49.66 131 50.32 131 51 C114.5 51 98 51 81 51 C81 51.99 81 52.98 81 54 C97.5 54 114 54 131 54 C131 54.99 131 55.98 131 57 C114.5 57 98 57 81 57 C81 57.99 81 58.98 81 60 C97.83 60 114.66 60 132 60 C132 61.32 132 62.64 132 64 C115.17 64 98.34 64 81 64 C81 64.99 81 65.98 81 67 C97.83 67 114.66 67 132 67 C132 67.66 132 68.32 132 69 C115.17 69 98.34 69 81 69 C81 69.99 81 70.98 81 72 C97.83 72 114.66 72 132 72 C132 72.99 132 73.98 132 75 C115.17 75 98.34 75 81 75 C81 75.99 81 76.98 81 78 C81.66985428 77.9830307 82.33970856 77.9660614 83.02986145 77.94857788 C89.98848709 77.77431264 96.94733654 77.61439687 103.90649414 77.46289062 C106.50521284 77.4044158 109.1038513 77.34225627 111.70239258 77.27636719 C115.43295689 77.18240907 119.16360707 77.10161437 122.89453125 77.0234375 C124.06023148 76.99124115 125.2259317 76.9590448 126.42695618 76.9258728 C127.50785019 76.90570099 128.5887442 76.88552917 129.70239258 76.86474609 C130.65503494 76.84253998 131.60767731 76.82033386 132.58918762 76.79745483 C135 77 135 77 138 79 C138 80.98 138 82.96 138 85 C92.46 85 46.92 85 0 85 C0 82.03 0 79.06 0 76 C1.32 75.9175 2.64 75.835 4 75.75 C12.35238177 74.76813694 17.24151816 71.31057563 22.65234375 65 C24.82400632 61.77712685 25.12663537 58.71586918 25.09765625 54.890625 C25.09515869 54.21032227 25.09266113 53.53001953 25.09008789 52.82910156 C25.08098389 51.97799805 25.07187988 51.12689453 25.0625 50.25 C25.041875 47.5275 25.02125 44.805 25 42 C30.61 42 36.22 42 42 42 C42 41.34 42 40.68 42 40 C41.01 40 40.02 40 39 40 C37.3501993 36.70039859 37.61741639 33.00872116 37.4375 29.375 C37.39431641 28.57320312 37.35113281 27.77140625 37.30664062 26.9453125 C37.20048543 24.9637489 37.09973145 22.98189729 37 21 C36.01 21 35.02 21 34 21 C34 26.94 34 32.88 34 39 C33.67 39 33.34 39 33 39 C32.505 30.09 32.505 30.09 32 21 C30.02 21.99 30.02 21.99 28 23 C28 28.28 28 33.56 28 39 C27.67 39 27.34 39 27 39 C26.505 32.565 26.505 32.565 26 26 C25.01 26.33 24.02 26.66 23 27 C23 30.63 23 34.26 23 38 C22.34 38 21.68 38 21 38 C20.67 35.69 20.34 33.38 20 31 C19.38125 31.350625 18.7625 31.70125 18.125 32.0625 C17.42375 32.371875 16.7225 32.68125 16 33 C15.34 32.67 14.68 32.34 14 32 C14 25.4 14 18.8 14 12 C13.34 12 12.68 12 12 12 C12 17.94 12 23.88 12 30 C8.04 29.67 4.08 29.34 0 29 C0 19.43 0 9.86 0 0 Z " fill="#ECE8DE" transform="translate(143,99)"/>
<path d="M0 0 C1.21991135 -0.00708481 2.43982269 -0.01416962 3.69670105 -0.02146912 C5.05581702 -0.0191751 6.41493264 -0.01666538 7.77404785 -0.01396179 C9.19965381 -0.01830703 10.62525742 -0.02348955 12.05085754 -0.02944946 C15.92887509 -0.04287008 19.80679537 -0.04341482 23.68483162 -0.04088616 C26.91816355 -0.03981866 30.15147561 -0.04469407 33.3848033 -0.04949158 C41.00984645 -0.06059707 48.63484035 -0.06101814 56.2598877 -0.05497742 C64.13636352 -0.04893366 72.0126609 -0.06125639 79.88910627 -0.08254749 C86.64327369 -0.1001362 93.39738417 -0.10616923 100.15157366 -0.10290974 C104.18924845 -0.10109258 108.22679593 -0.10377599 112.26445007 -0.11762428 C116.05984483 -0.13015404 119.85496035 -0.12830504 123.65035057 -0.11521339 C125.04598775 -0.11283751 126.44164429 -0.11561827 127.83725929 -0.12383652 C129.73693991 -0.13421937 131.63669936 -0.12444826 133.53637695 -0.11352539 C134.60121559 -0.11369313 135.66605423 -0.11386087 136.76316071 -0.1140337 C137.58981987 0.00962724 138.41647903 0.13328817 139.26818848 0.26069641 C141.56574769 3.70703523 141.50462823 4.97138032 141.46350098 9.02241516 C141.45383301 10.69980774 141.45383301 10.69980774 141.44396973 12.41108704 C141.41883301 14.16195618 141.41883301 14.16195618 141.39318848 15.94819641 C141.38416504 17.12704407 141.3751416 18.30589172 141.36584473 19.52046204 C141.34225271 22.43407667 141.30933388 25.34728533 141.26818848 28.26069641 C142.25818848 28.26069641 143.24818848 28.26069641 144.26818848 28.26069641 C144.26818848 28.92069641 144.26818848 29.58069641 144.26818848 30.26069641 C147.56818848 30.26069641 150.86818848 30.26069641 154.26818848 30.26069641 C154.26818848 29.60069641 154.26818848 28.94069641 154.26818848 28.26069641 C156.01680639 28.15216151 157.76738089 28.07486213 159.51818848 28.01069641 C160.49271973 27.96429016 161.46725098 27.91788391 162.47131348 27.87007141 C165.26818848 28.26069641 165.26818848 28.26069641 167.40979004 29.61543274 C170.34686525 33.79609616 169.83929403 37.98623433 169.79943848 42.97554016 C169.80326538 44.02343216 169.80709229 45.07132416 169.81103516 46.15097046 C169.81375566 48.36585959 169.80638489 50.58078077 169.78967285 52.79560852 C169.76828766 56.18248863 169.78945988 59.56724217 169.81506348 62.95405579 C169.81241981 65.10705525 169.80729402 67.2600534 169.79943848 69.41304016 C169.8075354 70.42462692 169.81563232 71.43621368 169.82397461 72.47845459 C169.76490637 76.91822073 169.71722351 79.52756745 167.35998535 83.37617493 C164.18383015 86.23760606 162.44497317 86.38240207 158.26037598 86.35835266 C157.27424316 86.35513 156.28811035 86.35190735 155.27209473 86.34858704 C154.23955566 86.34020813 153.2070166 86.33182922 152.14318848 86.32319641 C150.58277832 86.31642883 150.58277832 86.31642883 148.99084473 86.30952454 C146.41660161 86.29771608 143.84238794 86.27978026 141.26818848 86.26069641 C141.26818848 90.22069641 141.26818848 94.18069641 141.26818848 98.26069641 C121.13818848 98.26069641 101.00818848 98.26069641 80.26818848 98.26069641 C80.26818848 98.92069641 80.26818848 99.58069641 80.26818848 100.26069641 C71.02818848 100.26069641 61.78818848 100.26069641 52.26818848 100.26069641 C52.26818848 99.60069641 52.26818848 98.94069641 52.26818848 98.26069641 C32.46818848 98.26069641 12.66818848 98.26069641 -7.73181152 98.26069641 C-7.73181152 92.65069641 -7.73181152 87.04069641 -7.73181152 81.26069641 C-9.38181152 80.60069641 -11.03181152 79.94069641 -12.73181152 79.26069641 C-19.00888699 75.39788074 -21.96709377 70.33000953 -23.73181152 63.26069641 C-24.77035321 56.26927662 -23.66968293 50.17844205 -19.73181152 44.26069641 C-16.1313178 40.32818994 -12.98349535 37.43138426 -7.73181152 36.26069641 C-7.74228516 35.24120911 -7.75275879 34.2217218 -7.7635498 33.17134094 C-7.7996988 29.3956604 -7.82269329 25.6199952 -7.8416748 21.8441925 C-7.85174407 20.20874969 -7.86540033 18.57332492 -7.88269043 16.9379425 C-7.90689857 14.58975271 -7.9182851 12.24180054 -7.92712402 9.89350891 C-7.94260788 8.79343002 -7.94260788 8.79343002 -7.95840454 7.67112732 C-7.95880521 5.86606944 -7.85393907 4.06161811 -7.73181152 2.26069641 C-5.0531941 -0.41792101 -3.74519911 0.00722025 0 0 Z M-2.73181152 6.26069641 C-2.73181152 15.83069641 -2.73181152 25.40069641 -2.73181152 35.26069641 C1.22818848 35.59069641 5.18818848 35.92069641 9.26818848 36.26069641 C9.26818848 30.32069641 9.26818848 24.38069641 9.26818848 18.26069641 C9.92818848 18.26069641 10.58818848 18.26069641 11.26818848 18.26069641 C11.26818848 24.86069641 11.26818848 31.46069641 11.26818848 38.26069641 C12.58818848 38.59069641 13.90818848 38.92069641 15.26818848 39.26069641 C15.92818848 38.60069641 16.58818848 37.94069641 17.26818848 37.26069641 C17.59818848 39.57069641 17.92818848 41.88069641 18.26818848 44.26069641 C18.92818848 44.26069641 19.58818848 44.26069641 20.26818848 44.26069641 C20.26818848 40.63069641 20.26818848 37.00069641 20.26818848 33.26069641 C21.25818848 32.93069641 22.24818848 32.60069641 23.26818848 32.26069641 C23.59818848 36.55069641 23.92818848 40.84069641 24.26818848 45.26069641 C24.59818848 45.26069641 24.92818848 45.26069641 25.26818848 45.26069641 C25.26818848 39.98069641 25.26818848 34.70069641 25.26818848 29.26069641 C26.58818848 28.60069641 27.90818848 27.94069641 29.26818848 27.26069641 C29.76318848 36.17069641 29.76318848 36.17069641 30.26818848 45.26069641 C30.59818848 45.26069641 30.92818848 45.26069641 31.26818848 45.26069641 C31.26818848 39.32069641 31.26818848 33.38069641 31.26818848 27.26069641 C32.25818848 27.26069641 33.24818848 27.26069641 34.26818848 27.26069641 C34.32877441 28.46468079 34.38936035 29.66866516 34.45178223 30.90913391 C34.53618579 32.48466718 34.62083389 34.06018737 34.70568848 35.63569641 C34.74500488 36.42975891 34.78432129 37.22382141 34.8248291 38.04194641 C34.95712252 42.28670862 34.95712252 42.28670862 36.26818848 46.26069641 C37.25818848 46.26069641 38.24818848 46.26069641 39.26818848 46.26069641 C39.26818848 46.92069641 39.26818848 47.58069641 39.26818848 48.26069641 C33.65818848 48.26069641 28.04818848 48.26069641 22.26818848 48.26069641 C22.38591664 53.54060621 22.38591664 53.54060621 22.53845215 58.8195343 C22.60718918 64.99182378 21.57677577 69.60920179 17.40100098 74.40522766 C10.67598251 79.99196479 5.93035154 81.48498032 -2.73181152 82.26069641 C-2.73181152 85.23069641 -2.73181152 88.20069641 -2.73181152 91.26069641 C42.80818848 91.26069641 88.34818848 91.26069641 135.26818848 91.26069641 C135.26818848 89.28069641 135.26818848 87.30069641 135.26818848 85.26069641 C131.64173161 83.60072571 128.90463985 83.02866596 124.92712402 83.1254425 C123.88642258 83.14561432 122.84572113 83.16578613 121.77348328 83.18656921 C120.10603813 83.23486374 120.10603813 83.23486374 118.40490723 83.28413391 C117.25778763 83.30915985 116.11066803 83.33418579 114.92878723 83.35997009 C111.27078105 83.44203461 107.61332562 83.53867813 103.95568848 83.63569641 C101.47328898 83.69394971 98.99086699 83.75125269 96.50842285 83.80757141 C90.4280408 83.94759342 84.34804621 84.09958169 78.26818848 84.26069641 C78.26818848 83.27069641 78.26818848 82.28069641 78.26818848 81.26069641 C95.09818848 81.26069641 111.92818848 81.26069641 129.26818848 81.26069641 C129.26818848 80.27069641 129.26818848 79.28069641 129.26818848 78.26069641 C112.43818848 78.26069641 95.60818848 78.26069641 78.26818848 78.26069641 C78.26818848 77.27069641 78.26818848 76.28069641 78.26818848 75.26069641 C95.09818848 75.26069641 111.92818848 75.26069641 129.26818848 75.26069641 C129.26818848 74.60069641 129.26818848 73.94069641 129.26818848 73.26069641 C112.43818848 73.26069641 95.60818848 73.26069641 78.26818848 73.26069641 C78.26818848 72.27069641 78.26818848 71.28069641 78.26818848 70.26069641 C95.09818848 70.26069641 111.92818848 70.26069641 129.26818848 70.26069641 C129.26818848 68.94069641 129.26818848 67.62069641 129.26818848 66.26069641 C112.43818848 66.26069641 95.60818848 66.26069641 78.26818848 66.26069641 C78.26818848 65.27069641 78.26818848 64.28069641 78.26818848 63.26069641 C94.76818848 63.26069641 111.26818848 63.26069641 128.26818848 63.26069641 C128.26818848 62.27069641 128.26818848 61.28069641 128.26818848 60.26069641 C111.76818848 60.26069641 95.26818848 60.26069641 78.26818848 60.26069641 C78.26818848 59.27069641 78.26818848 58.28069641 78.26818848 57.26069641 C94.76818848 57.26069641 111.26818848 57.26069641 128.26818848 57.26069641 C128.26818848 56.60069641 128.26818848 55.94069641 128.26818848 55.26069641 C111.76818848 55.26069641 95.26818848 55.26069641 78.26818848 55.26069641 C78.26818848 54.27069641 78.26818848 53.28069641 78.26818848 52.26069641 C94.76818848 52.26069641 111.26818848 52.26069641 128.26818848 52.26069641 C128.26818848 51.60069641 128.26818848 50.94069641 128.26818848 50.26069641 C111.76818848 50.26069641 95.26818848 50.26069641 78.26818848 50.26069641 C78.26818848 49.27069641 78.26818848 48.28069641 78.26818848 47.26069641 C94.76818848 47.26069641 111.26818848 47.26069641 128.26818848 47.26069641 C128.26818848 46.27069641 128.26818848 45.28069641 128.26818848 44.26069641 C111.76818848 44.26069641 95.26818848 44.26069641 78.26818848 44.26069641 C78.26818848 43.27069641 78.26818848 42.28069641 78.26818848 41.26069641 C94.76818848 41.26069641 111.26818848 41.26069641 128.26818848 41.26069641 C128.26818848 40.60069641 128.26818848 39.94069641 128.26818848 39.26069641 C116.05818848 39.26069641 103.84818848 39.26069641 91.26818848 39.26069641 C91.26818848 38.27069641 91.26818848 37.28069641 91.26818848 36.26069641 C103.80818848 36.26069641 116.34818848 36.26069641 129.26818848 36.26069641 C130.25818848 33.95069641 131.24818848 31.64069641 132.26818848 29.26069641 C133.25818848 28.93069641 134.24818848 28.60069641 135.26818848 28.26069641 C135.26818848 21.00069641 135.26818848 13.74069641 135.26818848 6.26069641 C89.72818848 6.26069641 44.18818848 6.26069641 -2.73181152 6.26069641 Z " fill="#132A32" transform="translate(145.7318115234375,92.73930358886719)"/>
<path d="M0 0 C45.54 0 91.08 0 138 0 C138 7.26 138 14.52 138 22 C135.525 22.99 135.525 22.99 133 24 C133 18.06 133 12.12 133 6 C115.51 6 98.02 6 80 6 C80 12.93 80 19.86 80 27 C79.34 26.67 78.68 26.34 78 26 C77.67 32.6 77.34 39.2 77 46 C76.67 46 76.34 46 76 46 C76 38.41 76 30.82 76 23 C65.44 23 54.88 23 44 23 C44 30.92 44 38.84 44 47 C43.67 47 43.34 47 43 47 C43 44.36 43 41.72 43 39 C41.35 38.67 39.7 38.34 38 38 C37.67 32.39 37.34 26.78 37 21 C36.01 21 35.02 21 34 21 C34 26.94 34 32.88 34 39 C33.67 39 33.34 39 33 39 C32.505 30.09 32.505 30.09 32 21 C30.02 21.99 30.02 21.99 28 23 C28 28.28 28 33.56 28 39 C27.67 39 27.34 39 27 39 C26.505 32.565 26.505 32.565 26 26 C25.01 26.33 24.02 26.66 23 27 C23 30.63 23 34.26 23 38 C22.34 38 21.68 38 21 38 C20.67 35.69 20.34 33.38 20 31 C19.38125 31.350625 18.7625 31.70125 18.125 32.0625 C17.42375 32.371875 16.7225 32.68125 16 33 C15.34 32.67 14.68 32.34 14 32 C14 25.4 14 18.8 14 12 C13.34 12 12.68 12 12 12 C12 17.94 12 23.88 12 30 C8.04 29.67 4.08 29.34 0 29 C0 19.43 0 9.86 0 0 Z " fill="#F0EAE1" transform="translate(143,99)"/>
<path d="M0 0 C10.89 0 21.78 0 33 0 C33 3.3 33 6.6 33 10 C36.63 10 40.26 10 44 10 C44 26.5 44 43 44 60 C29.48 60 14.96 60 0 60 C0 40.2 0 20.4 0 0 Z " fill="#F6F9FB" transform="translate(38,222)"/>
<path d="M0 0 C0.33 0 0.66 0 1 0 C1.33 10.56 1.66 21.12 2 32 C3.36839363 29.26321275 3.21634818 26.95735576 3.31640625 23.8984375 C3.35830078 22.68671875 3.40019531 21.475 3.44335938 20.2265625 C3.48267578 18.95554687 3.52199219 17.68453125 3.5625 16.375 C3.60568359 15.09625 3.64886719 13.8175 3.69335938 12.5 C3.79969886 9.33344652 3.90172833 6.16681247 4 3 C4.33 3 4.66 3 5 3 C5 12.57 5 22.14 5 32 C7.97 32 10.94 32 14 32 C15.485 32.495 15.485 32.495 17 33 C17 27.06 17 21.12 17 15 C17.66 15 18.32 15 19 15 C19 21.6 19 28.2 19 35 C23.60532389 34.30697031 23.60532389 34.30697031 26 33 C26 35.64 26 38.28 26 41 C26.66 41 27.32 41 28 41 C28 37.37 28 33.74 28 30 C29.32 29.34 30.64 28.68 32 28 C32.804375 27.113125 33.60875 26.22625 34.4375 25.3125 C35.7059375 24.1678125 35.7059375 24.1678125 37 23 C39.8125 23.1875 39.8125 23.1875 42 24 C42.33 23.34 42.66 22.68 43 22 C43.495 32.395 43.495 32.395 44 43 C44.99 43 45.98 43 47 43 C47 43.66 47 44.32 47 45 C41.39 45 35.78 45 30 45 C30.33 45.66 30.66 46.32 31 47 C32.06865119 63.99566417 32.06865119 63.99566417 26.48828125 70.859375 C22.19668371 75.52709008 17.89031716 78.7490118 11.3359375 79.171875 C8.88148379 79.18570291 6.45047018 79.13312413 4 79 C4 81.97 4 84.94 4 88 C3.34 88 2.68 88 2 88 C1.67 88.66 1.34 89.32 1 90 C1 86.04 1 82.08 1 78 C-0.65 77.67 -2.3 77.34 -4 77 C-9.7645903 73.48971875 -13.22101884 68.95592662 -15.375 62.609375 C-17.04369891 55.64255707 -16.61233735 49.55980689 -13.40625 43.11328125 C-10.01209247 38.01261674 -5.93805917 34.48451479 0 33 C0 22.11 0 11.22 0 0 Z " fill="#172E35" transform="translate(138,96)"/>
<path d="M0 0 C11.88 0 23.76 0 36 0 C36 16.17 36 32.34 36 49 C30.39 49 24.78 49 19 49 C19 49.99 19 50.98 19 52 C18.01 52 17.02 52 16 52 C16 51.01 16 50.02 16 49 C10.72 49 5.44 49 0 49 C0 32.83 0 16.66 0 0 Z " fill="#E4EEF7" transform="translate(277,125)"/>
<path d="M0 0 C4.71362305 1.9901964 7.72172827 5.44345654 10 10 C10.04022391 12.3329866 10.04320247 14.66706666 10 17 C10.928125 17.226875 11.85625 17.45375 12.8125 17.6875 C16 19 16 19 17.875 21.0625 C19.4304359 25.12391597 19.70920353 28.70581161 19 33 C16.84297333 36.62072333 14.83802806 38.3922095 11 40 C8.96487427 40.26742554 8.96487427 40.26742554 6.78564453 40.29052734 C5.96444122 40.30328705 5.14323792 40.31604675 4.29714966 40.32919312 C3.4179184 40.33141876 2.53868713 40.33364441 1.6328125 40.3359375 C0.26429642 40.3459227 0.26429642 40.3459227 -1.13186646 40.35610962 C-3.06005846 40.3662245 -4.9882854 40.370927 -6.91650391 40.37060547 C-9.85768708 40.37497428 -12.79736389 40.41129367 -15.73828125 40.44921875 C-17.61457822 40.45508813 -19.49088229 40.45905671 -21.3671875 40.4609375 C-22.2423703 40.47530853 -23.1175531 40.48967957 -24.01925659 40.50448608 C-29.64963193 40.46261921 -32.65543668 39.63911624 -37 36 C-39.29845036 33.07469954 -39.53310611 29.79164165 -39.45703125 26.10546875 C-38.62123799 22.25510493 -36.06522606 19.3865507 -33 17 C-32.01 17 -31.02 17 -30 17 C-29.9175 16.071875 -29.835 15.14375 -29.75 14.1875 C-29 11 -29 11 -27.4375 9.0625 C-23.72580791 7.44458293 -20.94844195 8.27611898 -17 9 C-16.690625 7.88625 -16.690625 7.88625 -16.375 6.75 C-12.97365686 -0.05268627 -6.92521457 -1.05160666 0 0 Z " fill="#F9FAFB" transform="translate(84,26)"/>
<path d="M0 0 C1.21991135 -0.00708481 2.43982269 -0.01416962 3.69670105 -0.02146912 C5.05581702 -0.0191751 6.41493264 -0.01666538 7.77404785 -0.01396179 C9.19965381 -0.01830703 10.62525742 -0.02348955 12.05085754 -0.02944946 C15.92887509 -0.04287008 19.80679537 -0.04341482 23.68483162 -0.04088616 C26.91816355 -0.03981866 30.15147561 -0.04469407 33.3848033 -0.04949158 C41.00984645 -0.06059707 48.63484035 -0.06101814 56.2598877 -0.05497742 C64.13636352 -0.04893366 72.0126609 -0.06125639 79.88910627 -0.08254749 C86.64327369 -0.1001362 93.39738417 -0.10616923 100.15157366 -0.10290974 C104.18924845 -0.10109258 108.22679593 -0.10377599 112.26445007 -0.11762428 C116.05984483 -0.13015404 119.85496035 -0.12830504 123.65035057 -0.11521339 C125.04598775 -0.11283751 126.44164429 -0.11561827 127.83725929 -0.12383652 C129.73693991 -0.13421937 131.63669936 -0.12444826 133.53637695 -0.11352539 C134.60121559 -0.11369313 135.66605423 -0.11386087 136.76316071 -0.1140337 C137.58981987 0.00962724 138.41647903 0.13328817 139.26818848 0.26069641 C141.56574769 3.70703523 141.50462823 4.97138032 141.46350098 9.02241516 C141.45383301 10.69980774 141.45383301 10.69980774 141.44396973 12.41108704 C141.41883301 14.16195618 141.41883301 14.16195618 141.39318848 15.94819641 C141.38416504 17.12704407 141.3751416 18.30589172 141.36584473 19.52046204 C141.34225271 22.43407667 141.30933388 25.34728533 141.26818848 28.26069641 C142.25818848 28.26069641 143.24818848 28.26069641 144.26818848 28.26069641 C144.26818848 28.92069641 144.26818848 29.58069641 144.26818848 30.26069641 C147.56818848 30.26069641 150.86818848 30.26069641 154.26818848 30.26069641 C154.26818848 29.60069641 154.26818848 28.94069641 154.26818848 28.26069641 C157.89818848 28.26069641 161.52818848 28.26069641 165.26818848 28.26069641 C164.93818848 29.25069641 164.60818848 30.24069641 164.26818848 31.26069641 C153.37818848 31.26069641 142.48818848 31.26069641 131.26818848 31.26069641 C131.59818848 30.27069641 131.92818848 29.28069641 132.26818848 28.26069641 C133.25818848 28.26069641 134.24818848 28.26069641 135.26818848 28.26069641 C135.26818848 21.00069641 135.26818848 13.74069641 135.26818848 6.26069641 C89.39818848 6.26069641 43.52818848 6.26069641 -3.73181152 6.26069641 C-3.73181152 15.17069641 -3.73181152 24.08069641 -3.73181152 33.26069641 C-4.72181152 34.25069641 -5.71181152 35.24069641 -6.73181152 36.26069641 C-6.92395475 31.45559683 -7.1026946 26.65025858 -7.2689209 21.8441925 C-7.32739152 20.20863923 -7.38955071 18.57321354 -7.45544434 16.9379425 C-7.54941762 14.59003428 -7.63020144 12.24198963 -7.70837402 9.89350891 C-7.74057037 9.16012299 -7.77276672 8.42673706 -7.80593872 7.67112732 C-7.8593758 5.86827286 -7.80461346 4.06287276 -7.73181152 2.26069641 C-5.0531941 -0.41792101 -3.74519911 0.00722025 0 0 Z " fill="#213840" transform="translate(145.7318115234375,92.73930358886719)"/>
<path d="M0 0 C17.16 0 34.32 0 52 0 C53 19 53 19 51 24 C50.505 23.01 50.505 23.01 50 22 C33.5 22 17 22 0 22 C0 14.74 0 7.48 0 0 Z " fill="#A5C038" transform="translate(224,105)"/>
<path d="M0 0 C0 1.98 0 3.96 0 6 C-66 6 -132 6 -200 6 C-200 4.35 -200 2.7 -200 1 C-171.62 1 -143.24 1 -114 1 C-114 1.66 -114 2.32 -114 3 C-104.76 3 -95.52 3 -86 3 C-86 2.34 -86 1.68 -86 1 C-78.18308363 0.86733728 -70.36613414 0.73683536 -62.54913998 0.60884857 C-58.91661288 0.54931089 -55.28409947 0.4891186 -51.65161133 0.42724609 C-34.4334767 0.13448094 -17.22131081 -0.07815533 0 0 Z " fill="#DDDFE1" transform="translate(312,190)"/>
<path d="M0 0 C12.54 0 25.08 0 38 0 C38 9.9 38 19.8 38 30 C21.17 30 4.34 30 -13 30 C-13 29.01 -13 28.02 -13 27 C3.5 27 20 27 37 27 C37 26.01 37 25.02 37 24 C20.5 24 4 24 -13 24 C-13 23.01 -13 22.02 -13 21 C3.5 21 20 21 37 21 C37 20.34 37 19.68 37 19 C20.5 19 4 19 -13 19 C-13 18.01 -13 17.02 -13 16 C3.5 16 20 16 37 16 C37 15.34 37 14.68 37 14 C20.5 14 4 14 -13 14 C-13 13.01 -13 12.02 -13 11 C3.5 11 20 11 37 11 C37 10.01 37 9.02 37 8 C20.5 8 4 8 -13 8 C-13 7.01 -13 6.02 -13 5 C3.5 5 20 5 37 5 C37 4.34 37 3.68 37 3 C24.79 3 12.58 3 0 3 C0 2.01 0 1.02 0 0 Z " fill="#4F543F" transform="translate(237,129)"/>
<path d="M0 0 C3.72998562 1.66467877 5.45912118 2.89492383 7.734375 6.37890625 C8.734375 9.31640625 8.734375 9.31640625 8.734375 12.31640625 C9.45625 12.35765625 10.178125 12.39890625 10.921875 12.44140625 C14.76505479 13.63706218 16.86173357 15.84969815 18.734375 19.31640625 C19.236517 23.47701139 19.30627179 26.88721053 16.734375 30.31640625 C13.79464276 32.42698324 12.38789363 33.31640625 8.734375 33.31640625 C8.53521484 31.92615234 8.53521484 31.92615234 8.33203125 30.5078125 C8.15542969 29.31027344 7.97882813 28.11273438 7.796875 26.87890625 C7.62285156 25.68394531 7.44882812 24.48898438 7.26953125 23.2578125 C7.04452287 20.43684949 7.04452287 20.43684949 5.734375 19.31640625 C3.234375 19.14973958 3.234375 19.14973958 0.734375 19.31640625 C-1.20653326 21.25731451 -0.66481935 24.78934527 -0.828125 27.37890625 C-0.91191406 28.66925781 -0.99570312 29.95960938 -1.08203125 31.2890625 C-1.17291016 32.78759766 -1.17291016 32.78759766 -1.265625 34.31640625 C-3.905625 34.31640625 -6.545625 34.31640625 -9.265625 34.31640625 C-9.265625 33.65640625 -9.265625 32.99640625 -9.265625 32.31640625 C-6.790625 31.82140625 -6.790625 31.82140625 -4.265625 31.31640625 C-3.9479295 28.20406726 -3.90154001 26.79161395 -5.83984375 24.26171875 C-6.53722656 23.66101563 -7.23460937 23.0603125 -7.953125 22.44140625 C-8.63761719 21.82523438 -9.32210938 21.2090625 -10.02734375 20.57421875 C-12.2066498 19.09278581 -12.2066498 19.09278581 -14.80078125 19.4140625 C-17.56441397 20.42578858 -18.97739482 21.52303569 -21.015625 23.62890625 C-21.60859375 24.22316406 -22.2015625 24.81742188 -22.8125 25.4296875 C-24.34747095 27.42267398 -24.85322616 28.8582921 -25.265625 31.31640625 C-27.59590592 30.38429388 -29.02454032 29.62637227 -30.578125 27.62890625 C-31.61035851 24.15684807 -31.18323047 21.80330703 -30.265625 18.31640625 C-28.06775143 15.64331677 -26.36020383 13.76711518 -23.140625 12.44140625 C-20.88416436 11.33713351 -20.88416436 11.33713351 -19.828125 7.94140625 C-16.17002621 -0.54538295 -8.41092305 -2.53777851 0 0 Z " fill="#F1ECE4" transform="translate(354.265625,227.68359375)"/>
<path d="M0 0 C0.96679688 0.00322266 1.93359375 0.00644531 2.9296875 0.00976562 C3.88875 -0.00634766 4.8478125 -0.02246094 5.8359375 -0.0390625 C7.22425781 -0.0400293 7.22425781 -0.0400293 8.640625 -0.04101562 C9.4867334 -0.04399658 10.3328418 -0.04697754 11.20458984 -0.05004883 C14.25993888 0.43399514 15.50095416 0.97825812 17.5546875 3.32226562 C17.94821403 6.07216389 18.09246925 8.41741061 18.05078125 11.16601562 C18.05223648 11.93151733 18.05369171 12.69701904 18.05519104 13.48571777 C18.05353223 15.10298471 18.04197273 16.72026745 18.02124023 18.33740234 C17.9922899 20.81350727 18.00062888 23.28747063 18.01367188 25.76367188 C18.00743416 27.33529687 17.99904295 28.9069151 17.98828125 30.47851562 C17.99121689 31.21920288 17.99415253 31.95989014 17.99717712 32.72302246 C17.90365506 37.81650374 17.90365506 37.81650374 16.1940918 40.29418945 C13.75560219 41.82337482 11.77227442 41.61101872 8.9296875 41.50976562 C7.94742188 41.48269531 6.96515625 41.455625 5.953125 41.42773438 C5.16164062 41.39292969 4.37015625 41.358125 3.5546875 41.32226562 C2.4099163 41.32226562 1.26538744 41.35951667 0.12109375 41.39257812 C-0.87019531 41.410625 -1.86148438 41.42867187 -2.8828125 41.44726562 C-3.87152344 41.47046875 -4.86023438 41.49367187 -5.87890625 41.51757812 C-8.4453125 41.32226562 -8.4453125 41.32226562 -10.4453125 39.32226562 C-10.640625 37.15820312 -10.640625 37.15820312 -10.5703125 34.69726562 C-10.54324219 33.47136719 -10.54324219 33.47136719 -10.515625 32.22070312 C-10.49242187 31.59421875 -10.46921875 30.96773437 -10.4453125 30.32226562 C-10.1153125 30.32226562 -9.7853125 30.32226562 -9.4453125 30.32226562 C-9.4453125 32.63226563 -9.4453125 34.94226562 -9.4453125 37.32226562 C-1.1953125 37.32226562 7.0546875 37.32226562 15.5546875 37.32226562 C15.5546875 26.43226562 15.5546875 15.54226562 15.5546875 4.32226562 C7.6346875 4.32226562 -0.2853125 4.32226562 -8.4453125 4.32226562 C-6.95327205 10.89050001 -6.95327205 10.89050001 -4.4453125 14.32226562 C-3.86256524 18.65124531 -4.21437434 21.53078224 -6.5078125 25.19726562 C-8.58966814 27.79667756 -9.2999437 28.2795101 -12.6328125 29.25976562 C-13.8909375 29.28039062 -15.1490625 29.30101563 -16.4453125 29.32226562 C-17.25742188 29.36996094 -18.06953125 29.41765625 -18.90625 29.46679688 C-24.19082871 29.68103655 -27.95715045 29.42123466 -32.4453125 26.32226562 C-35.40055668 23.52256061 -36.33155861 21.89103507 -37.1328125 17.88476562 C-36.27198151 13.42409592 -34.66647986 12.17559195 -31.171875 9.48632812 C-26.95479207 6.64313646 -22.82813111 7.3801531 -17.94335938 7.71289062 C-15.69043434 7.83648346 -15.69043434 7.83648346 -12.4453125 7.32226562 C-10.51035955 5.01612688 -10.51035955 5.01612688 -9.4453125 2.32226562 C-6.52111084 -0.60193604 -4.00014512 0.03072737 0 0 Z " fill="#FC4E38" transform="translate(171.4453125,24.677734375)"/>
<path d="M0 0 C65.67 0 131.34 0 199 0 C195.16136329 3.83863671 192.94861631 4.11276103 187.68468577 4.1384055 C186.96076354 4.1368569 186.23684132 4.1353083 185.49098206 4.13371277 C184.33368344 4.1371111 184.33368344 4.1371111 183.15300506 4.14057809 C180.55975196 4.14692384 177.96655104 4.14608836 175.37329102 4.14526367 C173.5172926 4.14825478 171.66129482 4.1516572 169.80529785 4.15544128 C164.75784392 4.16428985 159.71040693 4.16661974 154.66294599 4.16725707 C150.4530246 4.1682055 146.24310719 4.17188299 142.03318733 4.17542917 C132.10342168 4.1835768 122.17366509 4.1860131 112.24389648 4.18530273 C101.99138752 4.18470169 91.73893113 4.19525819 81.48643547 4.2110464 C72.69147829 4.22410884 63.89653832 4.22948719 55.1015715 4.22884732 C49.84544684 4.22859198 44.58936889 4.23146343 39.33325386 4.24202538 C34.3912809 4.25168469 29.44939953 4.25180046 24.5074234 4.24450874 C22.69174758 4.24346023 20.87606613 4.2458415 19.06040001 4.2518692 C16.5854918 4.25955451 14.11090263 4.25496743 11.63600159 4.24723816 C10.91431008 4.25238172 10.19261858 4.25752529 9.44905764 4.26282471 C5.79966817 4.23756752 3.10336707 4.00650983 0 2 C0 1.34 0 0.68 0 0 Z " fill="#304750" transform="translate(113,196)"/>
<path d="M0 0 C10.56 0 21.12 0 32 0 C32 7.92 32 15.84 32 24 C21.44 24 10.88 24 0 24 C0 16.08 0 8.16 0 0 Z " fill="#99C052" transform="translate(187,122)"/>
<path d="M0 0 C2.97 0 5.94 0 9 0 C9 9.9 9 19.8 9 30 C-8.82 30 -26.64 30 -45 30 C-45 25.38 -45 20.76 -45 16 C-41.7 16 -38.4 16 -35 16 C-34.67 14.35 -34.34 12.7 -34 11 C-30.7 11 -27.4 11 -24 11 C-24 16.61 -24 22.22 -24 28 C-23.34 28 -22.68 28 -22 28 C-22 24.04 -22 20.08 -22 16 C-19.03 16 -16.06 16 -13 16 C-13 19.96 -13 23.92 -13 28 C-8.71 28 -4.42 28 0 28 C0 18.76 0 9.52 0 0 Z " fill="#585D5B" transform="translate(365,38)"/>
<path d="M0 0 C7.59 0 15.18 0 23 0 C23 10.56 23 21.12 23 32 C15.41 32 7.82 32 0 32 C0 21 0 21 3 17 C3.54188002 11.94245314 3.02574361 9.90825216 0 6 C0 4.02 0 2.04 0 0 Z " fill="#EEEDED" transform="translate(163,29)"/>
<path d="M0 0 C1.98 0 3.96 0 6 0 C6 0.66 6 1.32 6 2 C6.66 2 7.32 2 8 2 C7.67 3.98 7.34 5.96 7 8 C5.9171875 7.87625 5.9171875 7.87625 4.8125 7.75 C1.16451206 8.07426559 -0.34568298 9.57319587 -3 12 C-1.02 12.33 0.96 12.66 3 13 C3 13.66 3 14.32 3 15 C3.66 15 4.32 15 5 15 C5 25.23 5 35.46 5 46 C-13.15 46 -31.3 46 -50 46 C-50 45.34 -50 44.68 -50 44 C-32.84 44 -15.68 44 2 44 C2 34.1 2 24.2 2 14 C-0.97 14 -3.94 14 -7 14 C-7 23.24 -7 32.48 -7 42 C-10.96 42 -14.92 42 -19 42 C-19.08522169 35.86403867 -18.89898617 30.06815666 -18 24 C-15.03 24 -12.06 24 -9 24 C-9 21.36 -9 18.72 -9 16 C-10.33804688 17.10021484 -10.33804688 17.10021484 -11.703125 18.22265625 C-12.88488228 19.16993788 -14.0672036 20.11651616 -15.25 21.0625 C-15.83652344 21.54783203 -16.42304688 22.03316406 -17.02734375 22.53320312 C-21.47628708 26.0573661 -21.47628708 26.0573661 -24.06835938 25.7734375 C-27.03369846 24.58610254 -28.3420476 22.44963733 -30.25 19.9375 C-30.95640625 19.01839844 -31.6628125 18.09929688 -32.390625 17.15234375 C-32.92171875 16.44207031 -33.4528125 15.73179688 -34 15 C-37.12413285 15.60613002 -39.13369924 16.60027443 -41.671875 18.50390625 C-42.33574219 18.99697266 -42.99960937 19.49003906 -43.68359375 19.99804688 C-44.36550781 20.51431641 -45.04742187 21.03058594 -45.75 21.5625 C-46.44738281 22.08263672 -47.14476562 22.60277344 -47.86328125 23.13867188 C-49.57974556 24.42014181 -51.29044431 25.70932798 -53 27 C-53 24 -53 24 -51.47119141 22.46606445 C-50.77171387 21.937146 -50.07223633 21.40822754 -49.3515625 20.86328125 C-48.59359375 20.28642578 -47.835625 19.70957031 -47.0546875 19.11523438 C-46.25289063 18.52033203 -45.45109375 17.92542969 -44.625 17.3125 C-43.8309375 16.70599609 -43.036875 16.09949219 -42.21875 15.47460938 C-36.27944847 11 -36.27944847 11 -34 11 C-32.56418526 12.61457079 -31.19855217 14.29219075 -29.875 16 C-29.15054687 16.928125 -28.42609375 17.85625 -27.6796875 18.8125 C-27.12539063 19.534375 -26.57109375 20.25625 -26 21 C-22.41784804 19.71012724 -19.6693871 18.19680302 -16.6796875 15.84765625 C-15.89722656 15.23599609 -15.11476563 14.62433594 -14.30859375 13.99414062 C-13.50550781 13.35669922 -12.70242188 12.71925781 -11.875 12.0625 C-11.06417969 11.42892578 -10.25335938 10.79535156 -9.41796875 10.14257812 C-4.45142207 6.3541968 -4.45142207 6.3541968 0 2 C0 1.34 0 0.68 0 0 Z " fill="#8FA0B3" transform="translate(372,24)"/>
<path d="M0 0 C1.421875 1.64453125 1.421875 1.64453125 2.75 3.8125 C3.19859375 4.52019531 3.6471875 5.22789062 4.109375 5.95703125 C5 8 5 8 4 11 C1.64599609 12.57470703 1.64599609 12.57470703 -1.4765625 14.2578125 C-2.61593262 14.87970459 -3.75530273 15.50159668 -4.92919922 16.14233398 C-6.16102844 16.80341717 -7.39296394 17.46430237 -8.625 18.125 C-11.10143435 19.46813088 -13.57446116 20.81745397 -16.046875 22.16796875 C-16.65373138 22.49847733 -17.26058777 22.8289859 -17.88583374 23.16950989 C-23.79958921 26.40506946 -29.50873819 29.91872912 -35.1796875 33.55859375 C-38.13454032 35.06876091 -39.73912547 35.42831102 -43 35 C-44.8125 33.875 -44.8125 33.875 -46 32 C-46.4375 29.0625 -46.4375 29.0625 -46 26 C-43.44893973 23.03038682 -40.83874531 21.15310442 -37.39453125 19.3359375 C-36.50096924 18.85801758 -35.60740723 18.38009766 -34.68676758 17.88769531 C-33.73825928 17.38850586 -32.78975098 16.88931641 -31.8125 16.375 C-23.80766132 12.10133685 -15.92376935 7.6996091 -8.19262695 2.94677734 C-3.31686163 0 -3.31686163 0 0 0 Z " fill="#172E36" transform="translate(120,161)"/>
<path d="M0 0 C3.33709846 0.66985553 5.41511076 2.10413361 7.84375 4.44921875 C9.91616572 7.61402228 9.96816484 10.37460236 9.7109375 14.08203125 C8.84382991 17.65142617 7.07357389 19.33472401 4.140625 21.4296875 C3.480625 21.4296875 2.820625 21.4296875 2.140625 21.4296875 C2.140625 23.7396875 2.140625 26.0496875 2.140625 28.4296875 C3.790625 28.4296875 5.440625 28.4296875 7.140625 28.4296875 C7.12 29.6259375 7.099375 30.8221875 7.078125 32.0546875 C7.06548146 35.61384347 7.54140848 38.91999074 8.140625 42.4296875 C7.140625 43.4296875 7.140625 43.4296875 4.578125 43.4921875 C3.77375 43.4715625 2.969375 43.4509375 2.140625 43.4296875 C1.810625 44.7496875 1.480625 46.0696875 1.140625 47.4296875 C-0.734375 48.0546875 -0.734375 48.0546875 -2.859375 48.4296875 C-4.859375 46.4296875 -4.859375 46.4296875 -5.09887695 44.06298828 C-5.09847412 43.09345215 -5.09807129 42.12391602 -5.09765625 41.125 C-5.11376953 40.06667969 -5.12988281 39.00835937 -5.14648438 37.91796875 C-5.16335204 35.68365135 -5.16864263 33.44921527 -5.16210938 31.21484375 C-5.07475663 24.89474078 -5.07475663 24.89474078 -8.3203125 19.7890625 C-9.57714844 19.11617187 -9.57714844 19.11617187 -10.859375 18.4296875 C-13.14791494 15.16034472 -13.33099718 12.3598723 -12.859375 8.4296875 C-9.64091207 2.65865052 -6.91744528 -0.23058151 0 0 Z " fill="#1A3139" transform="translate(279.859375,226.5703125)"/>
<path d="M0 0 C10.35135135 0 10.35135135 0 15 4 C19.29294644 8.76994049 21.50069348 12.25855301 21.31640625 18.84375 C20.56543431 23.96148469 18.20636124 27.85395682 14.5 31.375 C13.2625 32.179375 13.2625 32.179375 12 33 C11.401875 33.4125 10.80375 33.825 10.1875 34.25 C8 35 8 35 0 35 C0 23.45 0 11.9 0 0 Z " fill="#EAE5DD" transform="translate(143,134)"/>
<path d="M0 0 C28.38 0 56.76 0 86 0 C86.495 0.99 86.495 0.99 87 2 C99.87 2.495 99.87 2.495 113 3 C113 3.33 113 3.66 113 4 C90.50370574 5.2598152 68.0130916 5.11908446 45.4899292 5.06866455 C40.346806 5.05827773 35.20367762 5.05383464 30.06054688 5.04882812 C20.04035131 5.03822988 10.02017826 5.02125298 0 5 C0 3.35 0 1.7 0 0 Z " fill="#E8E7E8" transform="translate(112,191)"/>
<path d="M0 0 C11.55 0 23.1 0 35 0 C35 3.96 35 7.92 35 12 C23.45 12 11.9 12 0 12 C0 8.04 0 4.08 0 0 Z " fill="#C8DAE7" transform="translate(277,125)"/>
<path d="M0 0 C0.33 0 0.66 0 1 0 C1 16.17 1 32.34 1 49 C-4.61 49 -10.22 49 -16 49 C-16 49.99 -16 50.98 -16 52 C-16.99 52 -17.98 52 -19 52 C-19 51.01 -19 50.02 -19 49 C-24.28 49 -29.56 49 -35 49 C-35 48.67 -35 48.34 -35 48 C-23.45 48 -11.9 48 0 48 C0 39.09 0 30.18 0 21 C-11.55 21 -23.1 21 -35 21 C-35 18.03 -35 15.06 -35 12 C-23.45 12 -11.9 12 0 12 C0 8.04 0 4.08 0 0 Z " fill="#5A96CC" transform="translate(312,125)"/>
<path d="M0 0 C0.33 0 0.66 0 1 0 C1.01458252 0.56509277 1.02916504 1.13018555 1.04418945 1.71240234 C1.11856058 4.26730019 1.21525242 6.82087498 1.3125 9.375 C1.33505859 10.26445312 1.35761719 11.15390625 1.38085938 12.0703125 C1.4340332 13.34648437 1.4340332 13.34648437 1.48828125 14.6484375 C1.51446533 15.43395996 1.54064941 16.21948242 1.56762695 17.02880859 C1.84889597 19.40040156 1.84889597 19.40040156 5 21 C5 21.66 5 22.32 5 23 C-4.9 23 -14.8 23 -25 23 C-25.33 20.69 -25.66 18.38 -26 16 C-25.13375 15.649375 -24.2675 15.29875 -23.375 14.9375 C-19.72548198 12.84240632 -17.8831549 10.73709041 -15.39453125 7.42578125 C-14.93433594 6.95527344 -14.47414062 6.48476562 -14 6 C-12.66666667 6 -11.33333333 6 -10 6 C-10.01160156 6.92683594 -10.02320313 7.85367188 -10.03515625 8.80859375 C-10.04417969 10.00613281 -10.05320313 11.20367187 -10.0625 12.4375 C-10.07410156 13.63246094 -10.08570313 14.82742187 -10.09765625 16.05859375 C-10.33901792 18.88873341 -10.33901792 18.88873341 -9 20 C-9 14.72 -9 9.44 -9 4 C-4 2 -4 2 0 2 C0 1.34 0 0.68 0 0 Z " fill="#DEE5E2" transform="translate(180,157)"/>
<path d="M0 0 C2.57331406 1.05436255 3.83961339 2.59457957 5.62695312 4.70654297 C6.54734375 5.77195312 6.54734375 5.77195312 7.48632812 6.85888672 C8.87695312 8.76904297 8.87695312 8.76904297 8.87695312 10.76904297 C13.59189355 10.28881756 16.53415803 8.08165963 20.12695312 5.20654297 C25.78325055 0.76904297 25.78325055 0.76904297 26.87695312 0.76904297 C26.87695312 4.39904297 26.87695312 8.02904297 26.87695312 11.76904297 C26.38195312 10.77904297 26.38195312 10.77904297 25.87695312 9.76904297 C22.90695312 9.76904297 19.93695313 9.76904297 16.87695312 9.76904297 C16.54695313 15.70904297 16.21695313 21.64904297 15.87695312 27.76904297 C15.54695313 27.76904297 15.21695313 27.76904297 14.87695312 27.76904297 C14.87695312 23.80904297 14.87695312 19.84904297 14.87695312 15.76904297 C11.90695312 15.76904297 8.93695313 15.76904297 5.87695312 15.76904297 C5.87695312 19.72904297 5.87695312 23.68904297 5.87695312 27.76904297 C5.21695312 27.76904297 4.55695313 27.76904297 3.87695312 27.76904297 C3.87695312 22.15904297 3.87695312 16.54904297 3.87695312 10.76904297 C0.57695312 10.76904297 -2.72304688 10.76904297 -6.12304688 10.76904297 C-6.12304688 16.37904297 -6.12304688 21.98904297 -6.12304688 27.76904297 C-6.45304687 27.76904297 -6.78304688 27.76904297 -7.12304688 27.76904297 C-7.12304688 23.80904297 -7.12304688 19.84904297 -7.12304688 15.76904297 C-10.09304688 15.76904297 -13.06304687 15.76904297 -16.12304688 15.76904297 C-16.78304688 14.44904297 -17.44304687 13.12904297 -18.12304688 11.76904297 C-15.55553346 9.72743266 -12.96679724 7.71468014 -10.37304688 5.70654297 C-9.6434375 5.12582031 -8.91382813 4.54509766 -8.16210938 3.94677734 C-7.09863281 3.12983398 -7.09863281 3.12983398 -6.01367188 2.29638672 C-5.36430664 1.78841553 -4.71494141 1.28044434 -4.04589844 0.75708008 C-2.12304688 -0.23095703 -2.12304688 -0.23095703 0 0 Z " fill="#9BBACA" transform="translate(337.123046875,38.23095703125)"/>
<path d="M0 0 C11.22 0 22.44 0 34 0 C34 3.96 34 7.92 34 12 C33.505 11.01 33.505 11.01 33 10 C30.03 10 27.06 10 24 10 C24 10.99 24 11.98 24 13 C23.34 13 22.68 13 22 13 C21.67 14.32 21.34 15.64 21 17 C21 14.69 21 12.38 21 10 C18.03 10 15.06 10 12 10 C11.67 10.66 11.34 11.32 11 12 C11 11.34 11 10.68 11 10 C7.37 10 3.74 10 0 10 C0 6.7 0 3.4 0 0 Z " fill="#FEE3CF" transform="translate(278,147)"/>
<path d="M0 0 C3.39488422 2.05107588 4.80323081 3.70484621 7 7 C7.47594047 11.20414081 7.27531214 13.46976921 5.3125 17.25 C2.11706338 21.04997868 -0.13283973 22.81328397 -5.125 23.3125 C-8 23 -8 23 -11 21 C-9.66511872 17.40608886 -8.03977277 14.24509304 -6 11 C-6.433125 10.44570312 -6.86625 9.89140625 -7.3125 9.3203125 C-8.1478125 8.23363281 -8.1478125 8.23363281 -9 7.125 C-9.556875 6.40570313 -10.11375 5.68640625 -10.6875 4.9453125 C-12 3 -12 3 -12 1 C-8.30044901 -0.84977549 -4.03799166 -0.47056911 0 0 Z " fill="#FD5040" transform="translate(65,230)"/>
<path d="M0 0 C10.56 0 21.12 0 32 0 C32 2.97 32 5.94 32 9 C21.44 9 10.88 9 0 9 C0 6.03 0 3.06 0 0 Z " fill="#A4CFDC" transform="translate(187,153)"/>
<path d="M0 0 C0.91974609 -0.00386719 1.83949219 -0.00773437 2.78710938 -0.01171875 C3.74552734 -0.00011719 4.70394531 0.01148437 5.69140625 0.0234375 C7.12323242 0.00603516 7.12323242 0.00603516 8.58398438 -0.01171875 C9.50501953 -0.00785156 10.42605469 -0.00398438 11.375 0 C12.63461548 0.00507568 12.63461548 0.00507568 13.91967773 0.01025391 C16.95717334 0.51539124 18.20644961 1.06717499 20.25390625 3.3984375 C20.64743278 6.14833576 20.791688 8.49358248 20.75 11.2421875 C20.75145523 12.00768921 20.75291046 12.77319092 20.75440979 13.56188965 C20.75275098 15.17915658 20.74119148 16.79643933 20.72045898 18.41357422 C20.69150865 20.88967914 20.69984763 23.36364251 20.71289062 25.83984375 C20.70665291 27.41146874 20.6982617 28.98308697 20.6875 30.5546875 C20.69043564 31.29537476 20.69337128 32.03606201 20.69639587 32.79919434 C20.60287381 37.89267562 20.60287381 37.89267562 18.89331055 40.37036133 C16.45482094 41.8995467 14.47149317 41.6871906 11.62890625 41.5859375 C10.64664063 41.55886719 9.664375 41.53179687 8.65234375 41.50390625 C7.86085937 41.46910156 7.069375 41.43429688 6.25390625 41.3984375 C5.10913505 41.3984375 3.96460619 41.43568855 2.8203125 41.46875 C1.82902344 41.48679688 0.83773437 41.50484375 -0.18359375 41.5234375 C-1.17230469 41.54664063 -2.16101563 41.56984375 -3.1796875 41.59375 C-5.74609375 41.3984375 -5.74609375 41.3984375 -7.74609375 39.3984375 C-7.94140625 37.234375 -7.94140625 37.234375 -7.87109375 34.7734375 C-7.84402344 33.54753906 -7.84402344 33.54753906 -7.81640625 32.296875 C-7.79320312 31.67039062 -7.77 31.04390625 -7.74609375 30.3984375 C-7.41609375 30.3984375 -7.08609375 30.3984375 -6.74609375 30.3984375 C-6.74609375 32.7084375 -6.74609375 35.0184375 -6.74609375 37.3984375 C1.50390625 37.3984375 9.75390625 37.3984375 18.25390625 37.3984375 C18.25390625 26.5084375 18.25390625 15.6184375 18.25390625 4.3984375 C10.33390625 4.3984375 2.41390625 4.3984375 -5.74609375 4.3984375 C-5.74609375 6.3784375 -5.74609375 8.3584375 -5.74609375 10.3984375 C-6.73609375 9.7384375 -7.72609375 9.0784375 -8.74609375 8.3984375 C-7.94472287 2.468293 -6.13346979 0.02474836 0 0 Z " fill="#122932" transform="translate(168.74609375,24.6015625)"/>
<path d="M0 0 C0.33 0 0.66 0 1 0 C1.33 6.93 1.66 13.86 2 21 C2.99 21 3.98 21 5 21 C5 21.66 5 22.32 5 23 C-0.94 23.33 -6.88 23.66 -13 24 C-14.82073534 19.44816164 -15.2633121 17.90335113 -14.875 13.3125 C-14.81054688 12.35988281 -14.74609375 11.40726563 -14.6796875 10.42578125 C-14 8 -14 8 -12.09765625 6.8359375 C-11.05931641 6.42214844 -11.05931641 6.42214844 -10 6 C-9.195625 5.113125 -8.39125 4.22625 -7.5625 3.3125 C-6.716875 2.549375 -5.87125 1.78625 -5 1 C-2.1875 1.1875 -2.1875 1.1875 0 2 C0 1.34 0 0.68 0 0 Z " fill="#7FC6CA" transform="translate(180,118)"/>
<path d="M0 0 C1.0650015 1.96615661 2.06833174 3.96726926 3 6 C3.66 6.33 4.32 6.66 5 7 C5 6.01 5 5.02 5 4 C6.32 4.33 7.64 4.66 9 5 C9 5.66 9 6.32 9 7 C9.99 6.67 10.98 6.34 12 6 C12.66 6.33 13.32 6.66 14 7 C13.67 8.32 13.34 9.64 13 11 C13.66 11 14.32 11 15 11 C15 12.32 15 13.64 15 15 C14.34 15 13.68 15 13 15 C13.33 16.32 13.66 17.64 14 19 C13.195625 19.12375 12.39125 19.2475 11.5625 19.375 C10.716875 19.58125 9.87125 19.7875 9 20 C8.67 20.66 8.34 21.32 8 22 C7.01 22 6.02 22 5 22 C5 21.01 5 20.02 5 19 C3.68 19.33 2.36 19.66 1 20 C0.67 19.01 0.34 18.02 0 17 C0.33 16.34 0.66 15.68 1 15 C0.01 15 -0.98 15 -2 15 C-2 13.68 -2 12.36 -2 11 C-1.01 11 -0.02 11 1 11 C0.67 9.68 0.34 8.36 0 7 C-0.8971875 7.2784375 -0.8971875 7.2784375 -1.8125 7.5625 C-4 8 -4 8 -7 7 C-8.17755913 4.05610218 -8.03348696 3.10046087 -7 0 C-2.90909091 -1.36363636 -2.90909091 -1.36363636 0 0 Z " fill="#27ABBA" transform="translate(72,40)"/>
<path d="M0 0 C0.66 0.66 1.32 1.32 2 2 C0.68 2.33 -0.64 2.66 -2 3 C-1.154375 3.86625 -0.30875 4.7325 0.5625 5.625 C2.67368877 8.16202514 2.99460109 8.72465542 3.0625 12.1875 C1.84211052 15.41794274 1.07299759 16.4635012 -2 18 C-4.75 18.1875 -4.75 18.1875 -7 18 C-7.33 18.99 -7.66 19.98 -8 21 C-11.83968859 19.5435664 -13.31006462 17.71785783 -15 14 C-15.59866575 9.98038714 -15.18471519 8.33121345 -13.1875 4.75 C-9.03362843 -0.47200998 -6.24045306 -0.39621924 0 0 Z " fill="#1D353E" transform="translate(282,227)"/>
<path d="M0 0 C16.83 0 33.66 0 51 0 C51 2.64 51 5.28 51 8 C34.17 8 17.34 8 0 8 C0 7.01 0 6.02 0 5 C16.5 5 33 5 50 5 C50 4.01 50 3.02 50 2 C33.5 2 17 2 0 2 C0 1.34 0 0.68 0 0 Z " fill="#434A33" transform="translate(224,151)"/>
<path d="M0 0 C2.97 0 5.94 0 9 0 C9 9.24 9 18.48 9 28 C6.03 28 3.06 28 0 28 C0 18.76 0 9.52 0 0 Z " fill="#FE4A33" transform="translate(365,38)"/>
<path d="M0 0 C1.98 0 3.96 0 6 0 C6 0.66 6 1.32 6 2 C6.66 2 7.32 2 8 2 C7.67 3.98 7.34 5.96 7 8 C6.319375 7.896875 5.63875 7.79375 4.9375 7.6875 C1.2142566 8.08358972 -0.50368636 9.58671287 -3.3515625 11.90625 C-5 13 -5 13 -8 13 C-8.20882812 13.56074219 -8.41765625 14.12148438 -8.6328125 14.69921875 C-10.47919424 17.80641545 -13.02318949 19.68902959 -15.875 21.8125 C-16.40480469 22.23208984 -16.93460937 22.65167969 -17.48046875 23.08398438 C-21.31911438 25.97487507 -21.31911438 25.97487507 -24.1171875 26.078125 C-26.85118097 24.51260177 -28.35255668 22.43580038 -30.25 19.9375 C-30.95640625 19.01839844 -31.6628125 18.09929688 -32.390625 17.15234375 C-32.92171875 16.44207031 -33.4528125 15.73179688 -34 15 C-37.12413285 15.60613002 -39.13369924 16.60027443 -41.671875 18.50390625 C-42.33574219 18.99697266 -42.99960937 19.49003906 -43.68359375 19.99804688 C-44.36550781 20.51431641 -45.04742187 21.03058594 -45.75 21.5625 C-46.44738281 22.08263672 -47.14476562 22.60277344 -47.86328125 23.13867188 C-49.57974556 24.42014181 -51.29044431 25.70932798 -53 27 C-53 24 -53 24 -51.47119141 22.46606445 C-50.77171387 21.937146 -50.07223633 21.40822754 -49.3515625 20.86328125 C-48.59359375 20.28642578 -47.835625 19.70957031 -47.0546875 19.11523438 C-46.25289063 18.52033203 -45.45109375 17.92542969 -44.625 17.3125 C-43.8309375 16.70599609 -43.036875 16.09949219 -42.21875 15.47460938 C-36.27944847 11 -36.27944847 11 -34 11 C-32.56418526 12.61457079 -31.19855217 14.29219075 -29.875 16 C-29.15054687 16.928125 -28.42609375 17.85625 -27.6796875 18.8125 C-27.12539063 19.534375 -26.57109375 20.25625 -26 21 C-22.41784804 19.71012724 -19.6693871 18.19680302 -16.6796875 15.84765625 C-15.89722656 15.23599609 -15.11476563 14.62433594 -14.30859375 13.99414062 C-13.50550781 13.35669922 -12.70242188 12.71925781 -11.875 12.0625 C-11.06417969 11.42892578 -10.25335938 10.79535156 -9.41796875 10.14257812 C-4.45142207 6.3541968 -4.45142207 6.3541968 0 2 C0 1.34 0 0.68 0 0 Z " fill="#81A7BD" transform="translate(372,24)"/>
<path d="M0 0 C2.5 0.125 2.5 0.125 3.5 1.125 C3.57313567 3.65549402 3.59247527 6.15804837 3.5625 8.6875 C3.55798828 9.39841797 3.55347656 10.10933594 3.54882812 10.84179688 C3.53700864 12.60290013 3.51907263 14.36396036 3.5 16.125 C5.15 16.125 6.8 16.125 8.5 16.125 C8.5 20.125 8.5 20.125 7.109375 22.08203125 C6.49578125 22.69433594 5.8821875 23.30664062 5.25 23.9375 C4.64671875 24.56269531 4.0434375 25.18789063 3.421875 25.83203125 C1.5 27.125 1.5 27.125 -0.5 27.03515625 C-2.90714746 25.9397161 -4.39338222 24.63042058 -6.25 22.75 C-6.86359375 22.14414062 -7.4771875 21.53828125 -8.109375 20.9140625 C-9.5 19.125 -9.5 19.125 -9.5 16.125 C-7.52 16.125 -5.54 16.125 -3.5 16.125 C-3.51160156 15.05378906 -3.52320313 13.98257812 -3.53515625 12.87890625 C-3.54453299 11.48177257 -3.55363331 10.08463701 -3.5625 8.6875 C-3.57506836 7.62692383 -3.57506836 7.62692383 -3.58789062 6.54492188 C-3.59653588 4.73806441 -3.55220011 2.93112397 -3.5 1.125 C-2.5 0.125 -2.5 0.125 0 0 Z " fill="#F8AD0B" transform="translate(357.5,247.875)"/>
<path d="M0 0 C7.59 0 15.18 0 23 0 C23 0.33 23 0.66 23 1 C15.74 1 8.48 1 1 1 C1 4.96 1 8.92 1 13 C-19.13 13 -39.26 13 -60 13 C-60 13.66 -60 14.32 -60 15 C-69.24 15 -78.48 15 -88 15 C-88 14.34 -88 13.68 -88 13 C-107.8 13 -127.6 13 -148 13 C-148 12.67 -148 12.34 -148 12 C-99.16 12 -50.32 12 0 12 C0 8.04 0 4.08 0 0 Z " fill="#4A5C63" transform="translate(286,178)"/>
<path d="M0 0 C0 10.23 0 20.46 0 31 C-5.02298111 28.48850944 -8.20061785 25.39814646 -10 20 C-10.81091477 13.47792832 -10.10218329 9.03863497 -6.38671875 3.59375 C-4.50269803 1.42845295 -2.95923715 0 0 0 Z " fill="#E7E3DB" transform="translate(138,136)"/>
<path d="M0 0 C1.58206057 0.00667536 3.16410534 0.0186375 4.74609375 0.03515625 C5.55240234 0.03966797 6.35871094 0.04417969 7.18945312 0.04882812 C9.18753131 0.06065107 11.18557158 0.07858711 13.18359375 0.09765625 C12.52359375 1.41765625 11.86359375 2.73765625 11.18359375 4.09765625 C12.17359375 3.43765625 13.16359375 2.77765625 14.18359375 2.09765625 C14.21048591 3.57672517 14.22993996 5.05593108 14.24609375 6.53515625 C14.25769531 7.35886719 14.26929688 8.18257812 14.28125 9.03125 C14.18359375 11.09765625 14.18359375 11.09765625 13.18359375 12.09765625 C13.18359375 12.42765625 13.18359375 12.75765625 13.18359375 13.09765625 C10.37103094 13.12449937 7.55872134 13.14441813 4.74609375 13.16015625 C3.94365234 13.16853516 3.14121094 13.17691406 2.31445312 13.18554688 C0.27064154 13.19417055 -1.77324527 13.14993775 -3.81640625 13.09765625 C-4.81640625 12.09765625 -4.81640625 12.09765625 -4.94921875 9.62890625 C-4.94664062 8.62859375 -4.9440625 7.62828125 -4.94140625 6.59765625 C-4.94398438 5.59734375 -4.9465625 4.59703125 -4.94921875 3.56640625 C-4.73242811 -0.46334909 -4.24297283 0.10857146 0 0 Z " fill="#C4D67D" transform="translate(194.81640625,126.90234375)"/>
<path d="M0 0 C3.88084232 1.98774851 6.84246329 4.91833315 9.5625 8.3125 C9.5625 8.9725 9.5625 9.6325 9.5625 10.3125 C7.2525 10.3125 4.9425 10.3125 2.5625 10.3125 C2.5625 15.5925 2.5625 20.8725 2.5625 26.3125 C0.9125 26.6425 -0.7375 26.9725 -2.4375 27.3125 C-3.4375 26.3125 -3.4375 26.3125 -3.53515625 22.71484375 C-3.5284822 21.22653133 -3.51652183 19.73823568 -3.5 18.25 C-3.49548828 17.49138672 -3.49097656 16.73277344 -3.48632812 15.95117188 C-3.4745068 14.07158129 -3.45657078 12.19203101 -3.4375 10.3125 C-5.4175 10.3125 -7.3975 10.3125 -9.4375 10.3125 C-8.52511626 5.32697454 -5.27551525 0.67634811 0 0 Z " fill="#FB4B35" transform="translate(340.4375,247.6875)"/>
<path d="M0 0 C0.66 0 1.32 0 2 0 C2 6.6 2 13.2 2 20 C6.60532389 19.30697031 6.60532389 19.30697031 9 18 C9.12375 19.794375 9.12375 19.794375 9.25 21.625 C9.63555471 24.93386505 9.94962772 25.9343634 12.0625 28.6875 C15.08635683 33.85731974 14.31263548 39.14676903 14 45 C13.01 45 12.02 45 11 45 C9.515 45.495 9.515 45.495 8 46 C8.05800781 45.3709375 8.11601562 44.741875 8.17578125 44.09375 C8.52808179 37.41010541 7.5205312 33.04753613 3 28 C1.04148656 26.60644236 -0.95127113 25.25717453 -3 24 C-3.33 23.01 -3.66 22.02 -4 21 C-3.5155542 20.59225342 -3.0311084 20.18450684 -2.53198242 19.7644043 C-0.66889629 17.61866351 -0.58770927 16.57340154 -0.48828125 13.76953125 C-0.45283203 12.96708984 -0.41738281 12.16464844 -0.38085938 11.33789062 C-0.35830078 10.50451172 -0.33574219 9.67113281 -0.3125 8.8125 C-0.27833984 7.96751953 -0.24417969 7.12253906 -0.20898438 6.25195312 C-0.12658529 4.16843351 -0.06161355 2.08423784 0 0 Z " fill="#1A4A53" transform="translate(155,111)"/>
<path d="M0 0 C0.66 0 1.32 0 2 0 C2.1875 2.875 2.1875 2.875 2 6 C-1.67266114 8.44844076 -4.40489486 8.27400332 -8.64982605 8.24050903 C-9.82973404 8.24307231 -9.82973404 8.24307231 -11.03347856 8.24568737 C-13.67760284 8.24898993 -16.32147514 8.23796602 -18.96557617 8.22705078 C-20.85762018 8.22648683 -22.74966462 8.22680291 -24.64170837 8.22793579 C-29.78603289 8.22851094 -34.93026465 8.21673036 -40.07456756 8.20278788 C-45.44776298 8.19030756 -50.82096041 8.18911215 -56.19416809 8.18673706 C-66.37263776 8.18051434 -76.55106459 8.16409282 -86.72951537 8.14403808 C-98.31581559 8.1217037 -109.90211782 8.11069185 -121.4884342 8.10064721 C-145.32564657 8.07972728 -169.16282089 8.04453594 -193 8 C-193 7.67 -193 7.34 -193 7 C-192.04086102 6.99668985 -191.08172205 6.99337971 -190.09351826 6.98996925 C-166.76687407 6.90901295 -143.44029588 6.81670903 -120.11374378 6.71247292 C-108.83324861 6.66232867 -97.55276078 6.61588593 -86.2722168 6.578125 C-76.44130654 6.54520728 -66.6104529 6.50537723 -56.77960509 6.45720994 C-51.57316846 6.43194283 -46.36676939 6.41016212 -41.16028786 6.39665604 C-36.26099478 6.38383769 -31.36183052 6.3617856 -26.46260834 6.33261681 C-24.66349618 6.32353928 -22.86436329 6.31785039 -21.06522942 6.31578636 C-18.61017823 6.31246508 -16.15549252 6.2969913 -13.70051575 6.2784729 C-12.98747262 6.28040763 -12.2744295 6.28234237 -11.53977901 6.28433573 C-7.61464585 6.24002781 -4.48174314 5.87657202 -1 4 C-0.11306697 1.95894361 -0.11306697 1.95894361 0 0 Z " fill="#8AADC0" transform="translate(312,193)"/>
<path d="M0 0 C9.9 0 19.8 0 30 0 C30 2.31 30 4.62 30 7 C20.1 7 10.2 7 0 7 C0 4.69 0 2.38 0 0 Z " fill="#10A3B2" transform="translate(188,168)"/>
<path d="M0 0 C11.55 0 23.1 0 35 0 C35 0.33 35 0.66 35 1 C23.78 1 12.56 1 1 1 C1 8.26 1 15.52 1 23 C12.22 23 23.44 23 35 23 C35 24.32 35 25.64 35 27 C23.45 27 11.9 27 0 27 C0 18.09 0 9.18 0 0 Z " fill="#9FC1DC" transform="translate(277,146)"/>
<path d="M0 0 C2.97 0 5.94 0 9 0 C10.59412284 3.18824568 10.10174735 6.62896662 10.0625 10.125 C10.05798828 10.87910156 10.05347656 11.63320313 10.04882812 12.41015625 C10.03703499 14.27347127 10.01909942 16.13674555 10 18 C6.37 18 2.74 18 -1 18 C-1.08522169 11.86403867 -0.89898617 6.06815666 0 0 Z " fill="#1AA3B4" transform="translate(354,48)"/>
<path d="M0 0 C0.66 0.33 1.32 0.66 2 1 C2 17.5 2 34 2 51 C-12.52 51 -27.04 51 -42 51 C-42 50.34 -42 49.68 -42 49 C-28.14 49 -14.28 49 0 49 C0 32.83 0 16.66 0 0 Z " fill="#7EA3B9" transform="translate(82,233)"/>
<path d="M0 0 C5.28 0 10.56 0 16 0 C16 3.63 16 7.26 16 11 C13.6178125 11.185625 13.6178125 11.185625 11.1875 11.375 C7.50657469 11.66182535 6.16240582 11.89172945 3 14 C3 13.34 3 12.68 3 12 C2.01 12 1.02 12 0 12 C0 8.04 0 4.08 0 0 Z " fill="#FCFDFD" transform="translate(91,222)"/>
<path d="M0 0 C0.66 0.99 1.32 1.98 2 3 C1 4 1 4 -1.09437561 4.12025452 C-2.01592941 4.11803391 -2.93748322 4.11581329 -3.88696289 4.11352539 C-4.92796646 4.11344986 -5.96897003 4.11337433 -7.04151917 4.11329651 C-8.1737944 4.10813522 -9.30606964 4.10297394 -10.47265625 4.09765625 C-11.62543564 4.0962413 -12.77821503 4.09482635 -13.96592712 4.09336853 C-17.66481064 4.08775005 -21.36363464 4.07519442 -25.0625 4.0625 C-27.56315017 4.05748738 -30.06380129 4.05292406 -32.56445312 4.04882812 C-38.70965588 4.03777462 -44.85482369 4.02101852 -51 4 C-51 3.01 -51 2.02 -51 1 C-43.77392317 0.78145026 -36.54749005 0.58641378 -29.3203125 0.40795898 C-26.86020446 0.34440836 -24.40023094 0.27541284 -21.94042969 0.20092773 C-18.41101662 0.09498846 -14.88158775 0.0084412 -11.3515625 -0.07421875 C-10.24632233 -0.11157639 -9.14108215 -0.14893402 -8.00234985 -0.18742371 C-6.98144257 -0.20767105 -5.96053528 -0.2279184 -4.90869141 -0.2487793 C-3.55633896 -0.28541939 -3.55633896 -0.28541939 -2.17666626 -0.32279968 C-1.09921646 -0.16301384 -1.09921646 -0.16301384 0 0 Z " fill="#4D533D" transform="translate(275,173)"/>
<path d="M0 0 C-0.33 1.65 -0.66 3.3 -1 5 C-0.34 5 0.32 5 1 5 C1 11.93 1 18.86 1 26 C0.67 26 0.34 26 0 26 C-0.33 20.39 -0.66 14.78 -1 9 C-1.99 9 -2.98 9 -4 9 C-4 14.94 -4 20.88 -4 27 C-4.33 27 -4.66 27 -5 27 C-5.33 21.06 -5.66 15.12 -6 9 C-7.98 9.99 -7.98 9.99 -10 11 C-10 16.28 -10 21.56 -10 27 C-10.33 27 -10.66 27 -11 27 C-11.33 22.71 -11.66 18.42 -12 14 C-13.65 14.66 -15.3 15.32 -17 16 C-18.32676508 16.35858516 -19.65835921 16.7018576 -21 17 C-21 16.34 -21 15.68 -21 15 C-19.20703125 13.4140625 -19.20703125 13.4140625 -16.8125 11.625 C-15.58660156 10.69300781 -15.58660156 10.69300781 -14.3359375 9.7421875 C-12.54188639 8.40414938 -10.74112136 7.07510957 -8.9375 5.75 C-8.298125 5.1725 -7.65875 4.595 -7 4 C-7 3.01 -7 2.02 -7 1 C-4 0 -4 0 0 0 Z " fill="#E2E9E2" transform="translate(181,111)"/>
<path d="M0 0 C10.23 0 20.46 0 31 0 C31 1.65 31 3.3 31 5 C20.77 5 10.54 5 0 5 C0 3.35 0 1.7 0 0 Z " fill="#FE533D" transform="translate(188,111)"/>
<path d="M0 0 C16.83 0 33.66 0 51 0 C51 0.99 51 1.98 51 3 C34.17 3 17.34 3 0 3 C0 2.01 0 1.02 0 0 Z " fill="#4A4F39" transform="translate(224,168)"/>
<path d="M0 0 C16.83 0 33.66 0 51 0 C51 0.99 51 1.98 51 3 C34.17 3 17.34 3 0 3 C0 2.01 0 1.02 0 0 Z " fill="#4C503A" transform="translate(224,163)"/>
<path d="M0 0 C2.97 0 5.94 0 9 0 C9 5.61 9 11.22 9 17 C6.03 17 3.06 17 0 17 C0 11.39 0 5.78 0 0 Z " fill="#FD4A33" transform="translate(332,49)"/>
<path d="M0 0 C4.16340031 2.03740866 7.20183112 4.68979176 9.9375 8.4375 C10.4375 11.3125 10.4375 11.3125 9.9375 13.4375 C8.9375 14.4375 8.9375 14.4375 6.375 14.5 C5.570625 14.479375 4.76625 14.45875 3.9375 14.4375 C4.2675 15.0975 4.5975 15.7575 4.9375 16.4375 C5.05994289 18.60160684 5.11301142 20.76996523 5.125 22.9375 C5.13917969 24.1028125 5.15335937 25.268125 5.16796875 26.46875 C4.9375 29.4375 4.9375 29.4375 2.9375 31.4375 C0.3125 31.0625 0.3125 31.0625 -2.0625 30.4375 C-1.0725 29.7775 -0.0825 29.1175 0.9375 28.4375 C1.32144667 25.66487745 1.54092248 23.09426472 1.625 20.3125 C1.65916016 19.55839844 1.69332031 18.80429687 1.72851562 18.02734375 C1.81104278 16.16458799 1.87594711 14.30106674 1.9375 12.4375 C4.2475 12.4375 6.5575 12.4375 8.9375 12.4375 C7.89035076 11.11272041 6.82405331 9.80306254 5.75 8.5 C5.15832031 7.76910156 4.56664062 7.03820312 3.95703125 6.28515625 C1.55672552 4.08913185 0.17899859 3.53510455 -3.0625 3.4375 C-4.9071864 4.48534299 -4.9071864 4.48534299 -6.3125 6.1875 C-6.81265625 6.71859375 -7.3128125 7.2496875 -7.828125 7.796875 C-9.27115985 9.53402727 -9.27115985 9.53402727 -10.0625 12.4375 C-8.0825 12.4375 -6.1025 12.4375 -4.0625 12.4375 C-4.0625 17.3875 -4.0625 22.3375 -4.0625 27.4375 C-4.3925 27.4375 -4.7225 27.4375 -5.0625 27.4375 C-5.0625 22.8175 -5.0625 18.1975 -5.0625 13.4375 C-7.3725 13.4375 -9.6825 13.4375 -12.0625 13.4375 C-11.41225206 8.06588662 -9.02659038 5.61123333 -5.1796875 2.00390625 C-3.0625 0.4375 -3.0625 0.4375 0 0 Z " fill="#92A0B1" transform="translate(341.0625,245.5625)"/>
<path d="M0 0 C0.66 0.99 1.32 1.98 2 3 C-5.98068973 7.70017576 -13.98453869 12.35940698 -22 17 C-22.99628418 17.58040039 -23.99256836 18.16080078 -25.01904297 18.75878906 C-27.73323659 20.33405295 -30.4580441 21.88887071 -33.1875 23.4375 C-34.00508789 23.91550049 -34.82267578 24.39350098 -35.66503906 24.88598633 C-41.30852588 28.04869536 -41.30852588 28.04869536 -45.05078125 27.78515625 C-45.69402344 27.52605469 -46.33726563 27.26695312 -47 27 C-46.44328613 26.72994141 -45.88657227 26.45988281 -45.31298828 26.18164062 C-42.81438025 24.90517209 -40.40981558 23.51772801 -37.9921875 22.09375 C-37.0132251 21.51906982 -36.0342627 20.94438965 -35.02563477 20.35229492 C-33.98592529 19.7410376 -32.94621582 19.12978027 -31.875 18.5 C-23.40035313 13.53179364 -14.8888649 8.64927393 -6.27099609 3.93359375 C-2.93138082 2.25515093 -2.93138082 2.25515093 0 0 Z " fill="#82A2B4" transform="translate(125,170)"/>
<path d="M0 0 C2.43457288 2.43457288 2.80734435 4.45550948 3.1640625 7.83203125 C2.87274302 11.68161005 0.73924865 14.39454498 -2 17 C-4.85848546 18.67822543 -6.94356691 19.25154266 -10.24609375 19.25878906 C-11.48758179 19.26824554 -11.48758179 19.26824554 -12.75415039 19.27789307 C-13.63965576 19.2738446 -14.52516113 19.26979614 -15.4375 19.265625 C-16.3545874 19.26753845 -17.2716748 19.2694519 -18.21655273 19.27142334 C-20.15316035 19.27278274 -22.08977715 19.26910342 -24.02636719 19.26074219 C-26.98914069 19.25003923 -29.95130784 19.2606458 -32.9140625 19.2734375 C-34.79687634 19.27211586 -36.6796898 19.26955338 -38.5625 19.265625 C-39.89075806 19.27169769 -39.89075806 19.27169769 -41.24584961 19.27789307 C-42.0735083 19.27158875 -42.90116699 19.26528442 -43.75390625 19.25878906 C-44.47908447 19.25719788 -45.2042627 19.25560669 -45.95141602 19.25396729 C-48.30985035 18.9615872 -49.94492871 18.16557685 -52 17 C-48.56160259 15.28080129 -44.60636594 15.9677504 -40.828125 16.04296875 C-38.94792732 16.06536585 -37.06771821 16.08682028 -35.1875 16.10742188 C-32.22039023 16.14446169 -29.25386096 16.18742269 -26.28710938 16.24682617 C-23.42569663 16.30146789 -20.56493037 16.33045845 -17.703125 16.35546875 C-16.38093964 16.39114204 -16.38093964 16.39114204 -15.03204346 16.42753601 C-9.37799425 16.45146723 -6.33367659 15.71033364 -2 12 C-0.78306124 9.56612247 -0.68040104 7.58161154 -0.4375 4.875 C-0.35371094 3.96492188 -0.26992187 3.05484375 -0.18359375 2.1171875 C-0.09271484 1.06917969 -0.09271484 1.06917969 0 0 Z " fill="#85A8BC" transform="translate(103,49)"/>
<path d="M0 0 C11.22 0 22.44 0 34 0 C34 1.32 34 2.64 34 4 C22.78 4 11.56 4 0 4 C0 2.68 0 1.36 0 0 Z " fill="#C4E0F4" transform="translate(43,261)"/>
<path d="M0 0 C6.6 0 13.2 0 20 0 C20 2.31 20 4.62 20 7 C13.4 7 6.8 7 0 7 C0 4.69 0 2.38 0 0 Z " fill="#C0DAEF" transform="translate(279,157)"/>
<path d="M0 0 C3.28788824 3.11016455 5.83735988 6.01618925 8 10 C5.03 14.455 5.03 14.455 2 19 C-2.875 15.375 -2.875 15.375 -4 12 C-4.39849981 7.69620206 -4.46766201 5.68687857 -2 2.0625 C-1.34 1.381875 -0.68 0.70125 0 0 Z " fill="#5987B3" transform="translate(52,232)"/>
<path d="M0 0 C3.375 0.3125 3.375 0.3125 7 1 C9.14915785 4.22373677 9.38286803 5.26703674 9 9 C8.34 9.66 7.68 10.32 7 11 C6.60235737 12.98821313 6.26224651 14.98944339 6 17 C4.02 17 2.04 17 0 17 C-0.125 12.25 -0.125 12.25 1 10 C2.32 10 3.64 10 5 10 C5.33 9.34 5.66 8.68 6 8 C4.02 8 2.04 8 0 8 C0 8.99 0 9.98 0 11 C-0.99 10.67 -1.98 10.34 -3 10 C-3.36923077 4.58461538 -3.36923077 4.58461538 -1.5 1.625 C-1.005 1.08875 -0.51 0.5525 0 0 Z " fill="#F8FBFC" transform="translate(236,223)"/>
<path d="M0 0 C0.66 0.33 1.32 0.66 2 1 C2.07426356 5.62642926 2.12865492 10.25251009 2.16479492 14.87939453 C2.17986364 16.45269822 2.20032245 18.02596002 2.22631836 19.59912109 C2.26278738 21.86306096 2.27974508 24.12644457 2.29296875 26.390625 C2.30845261 27.09181458 2.32393646 27.79300415 2.33988953 28.51544189 C2.34091879 31.51513961 2.12832733 33.73467743 0.81445312 36.45117188 C-1.64854911 38.55360543 -3.11334446 38.46158355 -6.32421875 38.390625 C-7.35224609 38.37773438 -8.38027344 38.36484375 -9.43945312 38.3515625 C-10.51130859 38.31804687 -11.58316406 38.28453125 -12.6875 38.25 C-13.77095703 38.23195312 -14.85441406 38.21390625 -15.97070312 38.1953125 C-18.64802146 38.14813508 -21.32356909 38.08232249 -24 38 C-24.33 37.34 -24.66 36.68 -25 36 C-21.7 36 -18.4 36 -15 36 C-15 35.34 -15 34.68 -15 34 C-14.34 34.33 -13.68 34.66 -13 35 C-11.33654418 35.12082534 -9.66779409 35.1753794 -8 35.1875 C-7.113125 35.20167969 -6.22625 35.21585938 -5.3125 35.23046875 C-2.80480016 35.22713126 -2.80480016 35.22713126 -1 33 C-0.75484303 30.49624532 -0.62666342 28.09450521 -0.5859375 25.5859375 C-0.56657135 24.85629791 -0.5472052 24.12665833 -0.5272522 23.37490845 C-0.46741578 21.04172498 -0.42105577 18.70849227 -0.375 16.375 C-0.33682386 14.79424918 -0.29777235 13.21351924 -0.2578125 11.6328125 C-0.16171122 7.7553777 -0.07769588 3.87784551 0 0 Z " fill="#84A4B6" transform="translate(189,30)"/>
<path d="M0 0 C2.375 1.625 2.375 1.625 4 4 C3.85205998 7.6985004 3.64194427 9.35805573 1 12 C-4.97716895 12.543379 -4.97716895 12.543379 -8 10.9375 C-9.63378851 7.77203476 -8.85267564 5.34979714 -8 2 C-4.75173326 -0.16551116 -3.76905843 -0.55156953 0 0 Z " fill="#A3CAE0" transform="translate(281,232)"/>
<path d="M0 0 C0.33 0 0.66 0 1 0 C1.26995355 6.88585746 1.49980726 13.77221961 1.7019043 20.66040039 C1.77536371 23.00315567 1.85797913 25.34564257 1.94995117 27.68774414 C2.08062024 31.05586428 2.17825703 34.42357927 2.26953125 37.79296875 C2.31721146 38.83897751 2.36489166 39.88498627 2.41401672 40.96269226 C2.51261693 45.70282821 2.56246048 48.17907072 -0.171875 52.16992188 C-3.31655335 54.2048415 -4.81555941 54.59174415 -8.51953125 54.48828125 C-9.54111328 54.47216797 -10.56269531 54.45605469 -11.61523438 54.43945312 C-13.19788086 54.37661133 -13.19788086 54.37661133 -14.8125 54.3125 C-15.88693359 54.28994141 -16.96136719 54.26738281 -18.06835938 54.24414062 C-20.71283888 54.18537441 -23.35659933 54.09569833 -26 54 C-26 57.63 -26 61.26 -26 65 C-26.66 65 -27.32 65 -28 65 C-28 61.04 -28 57.08 -28 53 C-26.46988281 52.98582031 -24.93976563 52.97164062 -23.36328125 52.95703125 C-21.34632421 52.91012527 -19.32939804 52.86187792 -17.3125 52.8125 C-16.30509766 52.80669922 -15.29769531 52.80089844 -14.25976562 52.79492188 C-13.28330078 52.76591797 -12.30683594 52.73691406 -11.30078125 52.70703125 C-9.95753784 52.68346558 -9.95753784 52.68346558 -8.5871582 52.65942383 C-4.68181027 51.66401524 -3.32992443 50.29438564 -1 47 C-0.26423816 43.41070763 -0.27862932 39.88496642 -0.29296875 36.23046875 C-0.27784744 35.19432938 -0.26272614 34.15819 -0.24714661 33.09065247 C-0.20424465 29.78938069 -0.19542884 26.48902287 -0.1875 23.1875 C-0.16435776 20.9459392 -0.138993 18.70440017 -0.11132812 16.46289062 C-0.04845133 10.97525177 -0.01353684 5.48797043 0 0 Z " fill="#7797A7" transform="translate(315,126)"/>
<path d="M0 0 C2.97 0 5.94 0 9 0 C9 4.29 9 8.58 9 13 C6.03 13 3.06 13 0 13 C0 8.71 0 4.42 0 0 Z " fill="#255559" transform="translate(321,54)"/>
<path d="M0 0 C0.66 0.33 1.32 0.66 2 1 C-6.10429384 7.65505541 -14.51391338 13.84475851 -23 20 C-26.21043882 18.61811547 -28.04936365 17.07578097 -30.25 14.375 C-31.03117187 13.42753906 -31.03117187 13.42753906 -31.828125 12.4609375 C-32.21484375 11.97882812 -32.6015625 11.49671875 -33 11 C-36.12413285 11.60613002 -38.13369924 12.60027443 -40.671875 14.50390625 C-41.33574219 14.99697266 -41.99960937 15.49003906 -42.68359375 15.99804688 C-43.36550781 16.51431641 -44.04742187 17.03058594 -44.75 17.5625 C-45.44738281 18.08263672 -46.14476562 18.60277344 -46.86328125 19.13867188 C-48.57974556 20.42014181 -50.29044431 21.70932798 -52 23 C-52 20 -52 20 -50.47119141 18.46606445 C-49.77171387 17.937146 -49.07223633 17.40822754 -48.3515625 16.86328125 C-47.59359375 16.28642578 -46.835625 15.70957031 -46.0546875 15.11523438 C-45.25289063 14.52033203 -44.45109375 13.92542969 -43.625 13.3125 C-42.8309375 12.70599609 -42.036875 12.09949219 -41.21875 11.47460938 C-35.27944847 7 -35.27944847 7 -33 7 C-31.56418526 8.61457079 -30.19855217 10.29219075 -28.875 12 C-28.15054687 12.928125 -27.42609375 13.85625 -26.6796875 14.8125 C-26.12539063 15.534375 -25.57109375 16.25625 -25 17 C-21.38201611 15.70307668 -18.6463223 14.16842908 -15.64453125 11.77734375 C-14.46407227 10.84631836 -14.46407227 10.84631836 -13.25976562 9.89648438 C-12.45216797 9.25001953 -11.64457031 8.60355469 -10.8125 7.9375 C-9.19513327 6.65353223 -7.57669578 5.37091174 -5.95703125 4.08984375 C-5.24522705 3.52128662 -4.53342285 2.95272949 -3.80004883 2.36694336 C-2 1 -2 1 0 0 Z " fill="#4A4E51" transform="translate(371,28)"/>
<path d="M0 0 C5.28 0 10.56 0 16 0 C16 1.32 16 2.64 16 4 C16.99 4 17.98 4 19 4 C19 4.66 19 5.32 19 6 C11.74 6 4.48 6 -3 6 C-3 5.34 -3 4.68 -3 4 C-2.01 4 -1.02 4 0 4 C0 2.68 0 1.36 0 0 Z " fill="#C3D9DA" transform="translate(287,129)"/>
<path d="M0 0 C1.2375 -0.01417969 2.475 -0.02835937 3.75 -0.04296875 C7 0.1875 7 0.1875 10 2.1875 C6.68455701 3.29264766 3.79589889 3.50857631 0.3125 3.75 C-0.86699219 3.83378906 -2.04648438 3.91757813 -3.26171875 4.00390625 C-4.16535156 4.06449219 -5.06898437 4.12507813 -6 4.1875 C-6 5.5075 -6 6.8275 -6 8.1875 C-5.67 6.8675 -5.34 5.5475 -5 4.1875 C-3.68 4.1875 -2.36 4.1875 -1 4.1875 C-1 5.5075 -1 6.8275 -1 8.1875 C-0.34 8.1875 0.32 8.1875 1 8.1875 C1.33 6.8675 1.66 5.5475 2 4.1875 C2.99 4.5175 3.98 4.8475 5 5.1875 C4.67 6.1775 4.34 7.1675 4 8.1875 C4.66 8.1875 5.32 8.1875 6 8.1875 C6 6.8675 6 5.5475 6 4.1875 C6.66 4.1875 7.32 4.1875 8 4.1875 C8.042721 5.85361905 8.04063832 7.52132885 8 9.1875 C7 10.1875 7 10.1875 3.83984375 10.28515625 C1.90818359 10.26775391 1.90818359 10.26775391 -0.0625 10.25 C-1.35285156 10.24097656 -2.64320312 10.23195312 -3.97265625 10.22265625 C-4.97167969 10.21105469 -5.97070312 10.19945312 -7 10.1875 C-7.99 7.2175 -8.98 4.2475 -10 1.1875 C-6.50953395 0.02401132 -3.67722983 0.01915224 0 0 Z " fill="#EDF3F6" transform="translate(95,119.8125)"/>
<path d="M0 0 C2.97 0 5.94 0 9 0 C9 3.96 9 7.92 9 12 C6.03 12 3.06 12 0 12 C0 8.04 0 4.08 0 0 Z " fill="#FAA708" transform="translate(343,54)"/>
<path d="M0 0 C1.98 0 3.96 0 6 0 C6 3.96 6 7.92 6 12 C4.68 12 3.36 12 2 12 C1.67 12.66 1.34 13.32 1 14 C0.34 13.67 -0.32 13.34 -1 13 C-2.53668865 12.77532169 -4.07968054 12.59203195 -5.625 12.4375 C-6.44226563 12.35371094 -7.25953125 12.26992187 -8.1015625 12.18359375 C-8.72804688 12.12300781 -9.35453125 12.06242188 -10 12 C-10 11.01 -10 10.02 -10 9 C-5.545 8.505 -5.545 8.505 -1 8 C-0.67 5.36 -0.34 2.72 0 0 Z " fill="#FBFCFC" transform="translate(109,226)"/>
<path d="M0 0 C0.87527344 -0.01417969 1.75054687 -0.02835938 2.65234375 -0.04296875 C5.0625 0.1875 5.0625 0.1875 8.0625 2.1875 C6.50646229 6.00686528 4.10645069 8.44794438 1.0625 11.1875 C0.4025 11.1875 -0.2575 11.1875 -0.9375 11.1875 C-2.4453125 9.5078125 -2.4453125 9.5078125 -4.0625 7.3125 C-4.60132813 6.59320313 -5.14015625 5.87390625 -5.6953125 5.1328125 C-6.9375 3.1875 -6.9375 3.1875 -6.9375 1.1875 C-4.47380468 -0.04434766 -2.7480499 0.02017658 0 0 Z " fill="#FCA90A" transform="translate(59.9375,229.8125)"/>
<path d="M0 0 C0.99 0 1.98 0 3 0 C3 0.66 3 1.32 3 2 C3.99 2 4.98 2 6 2 C6 3.32 6 4.64 6 6 C5.34 6 4.68 6 4 6 C4.33 7.32 4.66 8.64 5 10 C4.195625 10.12375 3.39125 10.2475 2.5625 10.375 C1.716875 10.58125 0.87125 10.7875 0 11 C-0.33 11.66 -0.66 12.32 -1 13 C-1.99 13 -2.98 13 -4 13 C-4 12.01 -4 11.02 -4 10 C-5.32 10.33 -6.64 10.66 -8 11 C-10 5.25 -10 5.25 -10 3 C-8.68 3 -7.36 3 -6 3 C-5.01 4.485 -5.01 4.485 -4 6 C-2.68 6 -1.36 6 0 6 C0 4.02 0 2.04 0 0 Z " fill="#18A6B5" transform="translate(81,49)"/>
<path d="M0 0 C0.33 0 0.66 0 1 0 C1 16.17 1 32.34 1 49 C-4.61 49 -10.22 49 -16 49 C-16 49.99 -16 50.98 -16 52 C-16.99 52 -17.98 52 -19 52 C-19 51.01 -19 50.02 -19 49 C-24.28 49 -29.56 49 -35 49 C-35 48.67 -35 48.34 -35 48 C-23.45 48 -11.9 48 0 48 C0 32.16 0 16.32 0 0 Z " fill="#858E85" transform="translate(312,125)"/>
<path d="M0 0 C1.40668945 0.01450195 1.40668945 0.01450195 2.84179688 0.02929688 C3.81826172 0.05443359 4.79472656 0.07957031 5.80078125 0.10546875 C6.78884766 0.11900391 7.77691406 0.13253906 8.79492188 0.14648438 C11.23492356 0.18184672 13.67382844 0.23119842 16.11328125 0.29296875 C16.11328125 0.62296875 16.11328125 0.95296875 16.11328125 1.29296875 C13.80328125 1.29296875 11.49328125 1.29296875 9.11328125 1.29296875 C9.11328125 1.95296875 9.11328125 2.61296875 9.11328125 3.29296875 C12.08328125 3.29296875 15.05328125 3.29296875 18.11328125 3.29296875 C18.11328125 3.62296875 18.11328125 3.95296875 18.11328125 4.29296875 C10.19328125 4.29296875 2.27328125 4.29296875 -5.88671875 4.29296875 C-5.88671875 6.27296875 -5.88671875 8.25296875 -5.88671875 10.29296875 C-6.87671875 9.63296875 -7.86671875 8.97296875 -8.88671875 8.29296875 C-8.0707215 2.25458909 -6.22941233 -0.11326204 0 0 Z " fill="#52666E" transform="translate(168.88671875,24.70703125)"/>
<path d="M0 0 C0.99 0.495 0.99 0.495 2 1 C2 8.26 2 15.52 2 23 C8.6 23 15.2 23 22 23 C22 23.33 22 23.66 22 24 C19.03 24 16.06 24 13 24 C13 24.66 13 25.32 13 26 C9.7 26 6.4 26 3 26 C3 25.34 3 24.68 3 24 C2.01 24 1.02 24 0 24 C0 16.08 0 8.16 0 0 Z " fill="#8FB2C4" transform="translate(287,97)"/>
<path d="M0 0 C0.33 0 0.66 0 1 0 C1 10.89 1 21.78 1 33 C-11.375 32.9375 -11.375 32.9375 -15.27490234 32.90991211 C-16.79011475 32.90616577 -16.79011475 32.90616577 -18.3359375 32.90234375 C-19.37282715 32.89710693 -20.4097168 32.89187012 -21.47802734 32.88647461 C-23.9959668 32.82859185 -23.9959668 32.82859185 -26 34 C-26 31.03 -26 28.06 -26 25 C-27.65 25 -29.3 25 -31 25 C-31 24.67 -31 24.34 -31 24 C-28.69 24 -26.38 24 -24 24 C-23.67 23.34 -23.34 22.68 -23 22 C-21.63051084 25.95630201 -22.22208258 27.33249547 -23 32 C-15.41 32 -7.82 32 0 32 C0 21.44 0 10.88 0 0 Z " fill="#9BA4A8" transform="translate(186,29)"/>
<path d="M0 0 C4.95433585 1.23858396 7.18645731 2.72758333 10 7 C11.1577506 10.47325181 11.06866652 13.36067448 11 17 C9.09375 16.7734375 9.09375 16.7734375 7 16 C6.09375 14.0390625 6.09375 14.0390625 5.5 11.625 C4.37896611 7.70447816 3.45643166 6.26455867 0 4 C0 2.68 0 1.36 0 0 Z " fill="#36484D" transform="translate(149,138)"/>
<path d="M0 0 C0.99 0 1.98 0 3 0 C3 1.65 3 3.3 3 5 C12.24 5 21.48 5 31 5 C31 5.66 31 6.32 31 7 C21.1 7 11.2 7 1 7 C0.67 4.69 0.34 2.38 0 0 Z " fill="#A5CEDA" transform="translate(154,173)"/>
<path d="M0 0 C1.32 0 2.64 0 4 0 C5.484375 1.53125 5.484375 1.53125 6.75 3.5 C7.39195313 4.47453125 7.39195313 4.47453125 8.046875 5.46875 C8.36140625 5.9740625 8.6759375 6.479375 9 7 C8 8 8 8 5.27734375 8.09765625 C3.62412109 8.08025391 3.62412109 8.08025391 1.9375 8.0625 C0.28041016 8.04896484 0.28041016 8.04896484 -1.41015625 8.03515625 C-2.26480469 8.02355469 -3.11945313 8.01195313 -4 8 C-4 4.03320667 -2.720685 2.79625959 0 0 Z " fill="#D4E6F1" transform="translate(93,113)"/>
<path d="M0 0 C0 0.33 0 0.66 0 1 C-2.64 1.33 -5.28 1.66 -8 2 C-8.33 7.61 -8.66 13.22 -9 19 C-9.33 19 -9.66 19 -10 19 C-10 15.04 -10 11.08 -10 7 C-12.97 7 -15.94 7 -19 7 C-14.5084462 -1.9831076 -9.21254365 -2.91019991 0 0 Z " fill="#90BED6" transform="translate(340,47)"/>
<path d="M0 0 C5.61 0 11.22 0 17 0 C17 1.65 17 3.3 17 5 C11.72 5 6.44 5 1 5 C1 4.67 1 4.34 1 4 C3.31 4 5.62 4 8 4 C8 3.34 8 2.68 8 2 C5.36 2 2.72 2 0 2 C0 1.34 0 0.68 0 0 Z " fill="#E7E7E7" transform="translate(295,191)"/>
<path d="M0 0 C2.97 0 5.94 0 9 0 C10 3 10 3 9 7 C5.7 7 2.4 7 -1 7 C-0.67 4.69 -0.34 2.38 0 0 Z " fill="#B5D2EB" transform="translate(302,157)"/>
<path d="M0 0 C5.28 0 10.56 0 16 0 C12 5 12 5 9 7 C7.125 7 7.125 7 5 6 C3.35 4.02 1.7 2.04 0 0 Z " fill="#F8FAF1" transform="translate(192,127)"/>
<path d="M0 0 C-0.75 2.9375 -0.75 2.9375 -2 6 C-2.85851562 6.20302734 -2.85851562 6.20302734 -3.734375 6.41015625 C-7.0399949 7.27075729 -8.9385293 9.27630566 -11.5 11.5 C-17.26760563 16.50704225 -17.26760563 16.50704225 -21 17 C-21 16.34 -21 15.68 -21 15 C-19.20703125 13.4140625 -19.20703125 13.4140625 -16.8125 11.625 C-15.58660156 10.69300781 -15.58660156 10.69300781 -14.3359375 9.7421875 C-12.54188639 8.40414938 -10.74112136 7.07510957 -8.9375 5.75 C-8.298125 5.1725 -7.65875 4.595 -7 4 C-7 3.01 -7 2.02 -7 1 C-4 0 -4 0 0 0 Z " fill="#2AABB8" transform="translate(181,111)"/>
<path d="M0 0 C0 3.63 0 7.26 0 11 C-0.33 10.34 -0.66 9.68 -1 9 C-3.97 9 -6.94 9 -10 9 C-10 11.64 -10 14.28 -10 17 C-10.33 17 -10.66 17 -11 17 C-11.66609651 13.80273675 -11.82755766 11.1780173 -11 8 C-3.63054187 0 -3.63054187 0 0 0 Z " fill="#90C4DE" transform="translate(364,39)"/>
<path d="M0 0 C2.97 0 5.94 0 9 0 C9 2.64 9 5.28 9 8 C7.02 8 5.04 8 3 8 C3 7.01 3 6.02 3 5 C2.01 5 1.02 5 0 5 C0 3.35 0 1.7 0 0 Z " fill="#FDFDFC" transform="translate(303,128)"/>
<path d="M0 0 C3.2957838 1.6478919 3.7937793 4.68289307 5 8 C-1.625 9.125 -1.625 9.125 -5 8 C-6.17755913 5.05610218 -6.03348696 4.10046087 -5 1 C-2 0 -2 0 0 0 Z " fill="#6CC6CF" transform="translate(70,39)"/>
<path d="M0 0 C0.33 0.66 0.66 1.32 1 2 C-0.16723633 3.97558594 -0.16723633 3.97558594 -2 6 C-4.4519043 6.45410156 -4.4519043 6.45410156 -7.32421875 6.390625 C-8.35224609 6.37773438 -9.38027344 6.36484375 -10.43945312 6.3515625 C-11.51130859 6.31804687 -12.58316406 6.28453125 -13.6875 6.25 C-14.77095703 6.23195313 -15.85441406 6.21390625 -16.97070312 6.1953125 C-19.64802146 6.14813508 -22.32356909 6.08232249 -25 6 C-25.33 5.34 -25.66 4.68 -26 4 C-22.7 4 -19.4 4 -16 4 C-16 3.34 -16 2.68 -16 2 C-15.34 2.33 -14.68 2.66 -14 3 C-11.69589956 3.23604169 -11.69589956 3.23604169 -9.125 3.25 C-8.26132813 3.27578125 -7.39765625 3.3015625 -6.5078125 3.328125 C-3.54975351 2.94108924 -2.20798216 1.95124005 0 0 Z " fill="#7F9DAC" transform="translate(190,62)"/>
<path d="M0 0 C0.66 0 1.32 0 2 0 C2 0.66 2 1.32 2 2 C2.99 2 3.98 2 5 2 C4.67 3.65 4.34 5.3 4 7 C5.32 6.34 6.64 5.68 8 5 C8 5.66 8 6.32 8 7 C8.66 7 9.32 7 10 7 C9.67 8.32 9.34 9.64 9 11 C2.61396777 10.5180353 2.61396777 10.5180353 0 8.3125 C-1.33721014 5.22020156 -0.80305964 3.21223855 0 0 Z " fill="#B3D6E8" transform="translate(242,217)"/>
<path d="M0 0 C0.3403125 0.9590625 0.3403125 0.9590625 0.6875 1.9375 C1.85250896 4.27193661 1.85250896 4.27193661 4.625 4.75 C5.40875 4.8325 6.1925 4.915 7 5 C7 5.99 7 6.98 7 8 C-4.52164009 8.18451025 -4.52164009 8.18451025 -10 7 C-10 6.01 -10 5.02 -10 4 C-6.7 4 -3.4 4 0 4 C0 2.68 0 1.36 0 0 Z " fill="#DEEBF6" transform="translate(300,160)"/>
<path d="M0 0 C0.54785156 0.23976562 1.09570312 0.47953125 1.66015625 0.7265625 C-2.02978667 3.68804806 -5.72628843 6.63910543 -9.46484375 9.5390625 C-10.49867188 10.34988281 -11.5325 11.16070312 -12.59765625 11.99609375 C-13.50257813 12.56714844 -14.4075 13.13820313 -15.33984375 13.7265625 C-16.32984375 13.3965625 -17.31984375 13.0665625 -18.33984375 12.7265625 C-15.12267085 9.17657862 -11.58971512 6.25671181 -7.77734375 3.3515625 C-6.84792969 2.64257812 -5.91851562 1.93359375 -4.9609375 1.203125 C-2.33984375 -0.2734375 -2.33984375 -0.2734375 0 0 Z " fill="#86ABC1" transform="translate(337.33984375,38.2734375)"/>
<path d="M0 0 C0.33 0 0.66 0 1 0 C1 3.63 1 7.26 1 11 C2.32 10.01 3.64 9.02 5 8 C5 7.01 5 6.02 5 5 C8.465 4.505 8.465 4.505 12 4 C11.25 6.9375 11.25 6.9375 10 10 C8.1875 10.625 8.1875 10.625 6 11 C4.321702 12.31866272 2.65385233 13.65080468 1 15 C0.34 15 -0.32 15 -1 15 C-0.67 10.05 -0.34 5.1 0 0 Z " fill="#A6D0DD" transform="translate(169,146)"/>
<path d="M0 0 C2.64 0 5.28 0 8 0 C8 2.31 8 4.62 8 7 C5.36 7 2.72 7 0 7 C0 4.69 0 2.38 0 0 Z " fill="#A1BE30" transform="translate(302,149)"/>
<path d="M0 0 C2.64 0 5.28 0 8 0 C8 2.31 8 4.62 8 7 C5.36 7 2.72 7 0 7 C0 4.69 0 2.38 0 0 Z " fill="#FE4735" transform="translate(291,149)"/>
<path d="M0 0 C2.64 0 5.28 0 8 0 C8 2.31 8 4.62 8 7 C5.36 7 2.72 7 0 7 C0 4.69 0 2.38 0 0 Z " fill="#FEAB02" transform="translate(280,149)"/>
<path d="M0 0 C3.63 0 7.26 0 11 0 C10.67 0.99 10.34 1.98 10 3 C-0.89 3 -11.78 3 -23 3 C-19.72721861 0.81814574 -19.0648752 0.78567674 -15.33203125 1.0234375 C-14.43935547 1.075 -13.54667969 1.1265625 -12.62695312 1.1796875 C-11.69818359 1.24414062 -10.76941406 1.30859375 -9.8125 1.375 C-8.40194336 1.46007812 -8.40194336 1.46007812 -6.96289062 1.546875 C-4.64115091 1.68830077 -2.3205007 1.8397033 0 2 C0 1.34 0 0.68 0 0 Z " fill="#0D252D" transform="translate(300,121)"/>
<path d="M0 0 C5.28 0 10.56 0 16 0 C16.94043148 4.70215739 17.15775038 8.26748847 17 13 C15.41105928 14.58894072 13.75198576 14.16998411 11.5625 14.1875 C10.35787109 14.20876953 10.35787109 14.20876953 9.12890625 14.23046875 C7 14 7 14 5 12 C8.3 12 11.6 12 15 12 C15 8.37 15 4.74 15 1 C10.05 1 5.1 1 0 1 C0 0.67 0 0.34 0 0 Z " fill="#CDDDE7" transform="translate(92,221)"/>
<path d="M0 0 C3.93089159 3.2633817 6.91174115 5.88232154 10 10 C6.7 10 3.4 10 0 10 C0 6.7 0 3.4 0 0 Z " fill="#C2DFF3" transform="translate(71,222)"/>
<path d="M0 0 C3 0.625 3 0.625 8 5.625 C2.72 5.625 -2.56 5.625 -8 5.625 C-3 0.625 -3 0.625 0 0 Z " fill="#FAFBF6" transform="translate(200,134.375)"/>
<path d="M0 0 C0.33 0 0.66 0 1 0 C1 5.61 1 11.22 1 17 C3.97 17 6.94 17 10 17 C10 17.33 10 17.66 10 18 C2.94278228 18.94096236 -3.87865236 19.08185457 -11 19 C-11 14.38 -11 9.76 -11 5 C-10.67 5 -10.34 5 -10 5 C-10 9.29 -10 13.58 -10 18 C-7.03 17.67 -4.06 17.34 -1 17 C-0.67 11.39 -0.34 5.78 0 0 Z " fill="#837378" transform="translate(331,49)"/>
<path d="M0 0 C7.26 0 14.52 0 22 0 C21.01 1.485 21.01 1.485 20 3 C17.43359375 3.29296875 17.43359375 3.29296875 14.4375 3.1875 C13.44621094 3.16042969 12.45492187 3.13335937 11.43359375 3.10546875 C10.63050781 3.07066406 9.82742187 3.03585938 9 3 C8.67 3 8.34 3 8 3 C7.34 2.67 6.68 2.34 6 2 C3.6670134 1.95977609 1.33293334 1.95679753 -1 2 C-0.67 1.34 -0.34 0.68 0 0 Z " fill="#1B3239" transform="translate(166,63)"/>
<path d="M0 0 C1.8125 1.5625 1.8125 1.5625 3 3 C1.25 4.125 1.25 4.125 -1 5 C-3.25 4.125 -3.25 4.125 -5 3 C-5.33 4.32 -5.66 5.64 -6 7 C-6.99 7 -7.98 7 -9 7 C-9 4.69 -9 2.38 -9 0 C-5.67255773 -1.10914742 -3.35438475 -1.03211839 0 0 Z " fill="#E4E0D7" transform="translate(154,135)"/>
<path d="M0 0 C1.91261805 1.61089488 2.8953192 2.60175784 3.5390625 5.05078125 C3.67376233 8.59583596 3.71547318 11.02062278 1.5703125 13.95703125 C-0.25264032 15.62741935 -1.75640204 16.95116356 -4 18 C-6.234375 17.6484375 -6.234375 17.6484375 -8 17 C-3.25 13 -3.25 13 -1 13 C-0.1276588 10.00519083 0.10829766 7.36424089 0.0625 4.25 C0.05347656 3.45078125 0.04445313 2.6515625 0.03515625 1.828125 C0.02355469 1.22484375 0.01195312 0.6215625 0 0 Z " fill="#83A5BA" transform="translate(372,245)"/>
<path d="M0 0 C0.33 0 0.66 0 1 0 C1 6.27 1 12.54 1 19 C0.01 19 -0.98 19 -2 19 C-2 13.72 -2 8.44 -2 3 C-1.34 3 -0.68 3 0 3 C0 2.01 0 1.02 0 0 Z " fill="#9CCDDB" transform="translate(180,157)"/>
<path d="M0 0 C0.33 0 0.66 0 1 0 C1 6.27 1 12.54 1 19 C0.01 19 -0.98 19 -2 19 C-2 13.72 -2 8.44 -2 3 C-1.34 3 -0.68 3 0 3 C0 2.01 0 1.02 0 0 Z " fill="#0DA2B2" transform="translate(180,118)"/>
<path d="M0 0 C1.98 0 3.96 0 6 0 C6 0.66 6 1.32 6 2 C6.66 2 7.32 2 8 2 C7.67 3.98 7.34 5.96 7 8 C6.071875 7.835 5.14375 7.67 4.1875 7.5 C1.04378647 6.92251612 1.04378647 6.92251612 -2 7 C-1.67 6.401875 -1.34 5.80375 -1 5.1875 C0.20787988 2.94613529 0.20787988 2.94613529 0 0 Z " fill="#82ACC2" transform="translate(372,24)"/>
<path d="M0 0 C1.33333333 0 2.66666667 0 4 0 C4 4.29 4 8.58 4 13 C2.68 13 1.36 13 0 13 C-0.19466332 11.20909747 -0.38051213 9.41723495 -0.5625 7.625 C-0.66691406 6.62726563 -0.77132812 5.62953125 -0.87890625 4.6015625 C-1 2 -1 2 0 0 Z " fill="#A5CEDA" transform="translate(166,163)"/>
<path d="M0 0 C0.33 0 0.66 0 1 0 C1 5.61 1 11.22 1 17 C0.01 17 -0.98 17 -2 17 C-2.05383848 14.54137599 -2.09359038 12.0839245 -2.125 9.625 C-2.14175781 8.92632812 -2.15851563 8.22765625 -2.17578125 7.5078125 C-2.19344267 5.67102514 -2.10303261 3.83398037 -2 2 C-1.34 1.34 -0.68 0.68 0 0 Z " fill="#9DCCDC" transform="translate(174,159)"/>
<path d="M0 0 C3.3 0 6.6 0 10 0 C10.09765625 6.15234375 10.09765625 6.15234375 10 8 C9 9 9 9 7.15234375 9.09765625 C5.1015625 9.06510417 3.05078125 9.03255208 1 9 C1 9.99 1 10.98 1 12 C0.34 12 -0.32 12 -1 12 C-1.33 13.32 -1.66 14.64 -2 16 C-2 13.36 -2 10.72 -2 8 C-1.34 8 -0.68 8 0 8 C0 5.36 0 2.72 0 0 Z M1 1 C1 3.31 1 5.62 1 8 C3.64 8 6.28 8 9 8 C9 5.69 9 3.38 9 1 C6.36 1 3.72 1 1 1 Z " fill="#DDE7BE" transform="translate(301,148)"/>
<path d="M0 0 C5.28 0 10.56 0 16 0 C16 0.99 16 1.98 16 3 C10.72 3 5.44 3 0 3 C0 2.01 0 1.02 0 0 Z " fill="#A1BE31" transform="translate(287,129)"/>
<path d="M0 0 C0.33 0 0.66 0 1 0 C1 5.61 1 11.22 1 17 C0.01 17 -0.98 17 -2 17 C-2.05383848 14.54137599 -2.09359038 12.0839245 -2.125 9.625 C-2.14175781 8.92632812 -2.15851563 8.22765625 -2.17578125 7.5078125 C-2.19344267 5.67102514 -2.10303261 3.83398037 -2 2 C-1.34 1.34 -0.68 0.68 0 0 Z " fill="#0CA2B2" transform="translate(174,120)"/>
<path d="M0 0 C0.33 0 0.66 0 1 0 C2.43206757 8.88572047 2.43206757 8.88572047 0.8125 13.0625 C-1.1457767 15.15583027 -2.18202494 15.70848534 -5 16 C-5 17.65 -5 19.3 -5 21 C-5.66 21 -6.32 21 -7 21 C-7.3125 17.6875 -7.3125 17.6875 -7 14 C-4.5625 12.1875 -4.5625 12.1875 -2 11 C-0.85185003 8.70370006 -0.69230191 6.92301914 -0.4375 4.375 C-0.35371094 3.55773437 -0.26992188 2.74046875 -0.18359375 1.8984375 C-0.12300781 1.27195313 -0.06242187 0.64546875 0 0 Z " fill="#7F9EB0" transform="translate(289,234)"/>
<path d="M0 0 C2.64 0 5.28 0 8 0 C8 0.66 8 1.32 8 2 C6.02 2 4.04 2 2 2 C2.01160156 2.59425781 2.02320313 3.18851563 2.03515625 3.80078125 C2.10546296 10.25895513 1.68350916 16.57989613 1 23 C0.67 23 0.34 23 0 23 C0 15.41 0 7.82 0 0 Z " fill="#92B4C8" transform="translate(316,148)"/>
<path d="M0 0 C0 4.29 0 8.58 0 13 C-1.32 13 -2.64 13 -4 13 C-4.08086147 11.20906809 -4.13912702 9.41710372 -4.1875 7.625 C-4.22230469 6.62726563 -4.25710937 5.62953125 -4.29296875 4.6015625 C-4.14794922 3.31378906 -4.14794922 3.31378906 -4 2 C-1 0 -1 0 0 0 Z " fill="#1EA8B6" transform="translate(170,124)"/>
<path d="M0 0 C11.88 0 23.76 0 36 0 C36 0.33 36 0.66 36 1 C30.39 1 24.78 1 19 1 C19 1.99 19 2.98 19 4 C18.01 4 17.02 4 16 4 C16 3.01 16 2.02 16 1 C10.72 1 5.44 1 0 1 C0 0.67 0 0.34 0 0 Z " fill="#586C72" transform="translate(277,173)"/>
<path d="M0 0 C1.32 0 2.64 0 4 0 C4 0.66 4 1.32 4 2 C3.34 2 2.68 2 2 2 C1.67 4.31 1.34 6.62 1 9 C-3.62 9 -8.24 9 -13 9 C-13 8.34 -13 7.68 -13 7 C-7.06 6.505 -7.06 6.505 -1 6 C-0.67 4.02 -0.34 2.04 0 0 Z " fill="#90B1C3" transform="translate(103,123)"/>
<path d="M0 0 C0.99 0.33 1.98 0.66 3 1 C2.67 1.66 2.34 2.32 2 3 C-9.88 3 -21.76 3 -34 3 C-34 2.67 -34 2.34 -34 2 C-32.50835327 1.96241577 -32.50835327 1.96241577 -30.98657227 1.92407227 C-27.30951253 1.83015118 -23.6326485 1.72989381 -19.95581055 1.62768555 C-18.362107 1.58427854 -16.7683552 1.54260781 -15.17456055 1.50268555 C-12.88836092 1.44512193 -10.60240551 1.38138851 -8.31640625 1.31640625 C-7.2413961 1.29133751 -7.2413961 1.29133751 -6.14466858 1.26576233 C-2.78472618 1.44981346 -2.78472618 1.44981346 0 0 Z " fill="#3D4C4A" transform="translate(311,122)"/>
<path d="M0 0 C7.26 0 14.52 0 22 0 C22 0.33 22 0.66 22 1 C19.03 1 16.06 1 13 1 C13 1.66 13 2.32 13 3 C9.7 3 6.4 3 3 3 C3 2.34 3 1.68 3 1 C2.01 0.67 1.02 0.34 0 0 Z " fill="#5D7179" transform="translate(287,120)"/>
<path d="M0 0 C0.66 0.33 1.32 0.66 2 1 C0.46583702 4.98882376 -2.4247074 8.64783382 -6 11 C-8.1953125 10.66796875 -8.1953125 10.66796875 -10 10 C-6.66666667 6.66666667 -3.33333333 3.33333333 0 0 Z " fill="#80A0B0" transform="translate(367,266)"/>
<path d="M0 0 C9.57 0 19.14 0 29 0 C29 0.33 29 0.66 29 1 C20.42 1.33 11.84 1.66 3 2 C2.34 4.31 1.68 6.62 1 9 C0.67 9 0.34 9 0 9 C0 6.03 0 3.06 0 0 Z " fill="#5190C8" transform="translate(277,137)"/>
<path d="M0 0 C1.32 0 2.64 0 4 0 C4 3.3 4 6.6 4 10 C2.68 10 1.36 10 0 10 C0 6.7 0 3.4 0 0 Z " fill="#F1C9C4" transform="translate(149,40)"/>
<path d="M0 0 C0.66 0.33 1.32 0.66 2 1 C2.125 3.875 2.125 3.875 2 7 C1.34 7.66 0.68 8.32 0 9 C-0.39764263 10.98821313 -0.73775349 12.98944339 -1 15 C-2.98 15 -4.96 15 -7 15 C-5.68 14.67 -4.36 14.34 -3 14 C-3.04125 12.88625 -3.0825 11.7725 -3.125 10.625 C-3 7 -3 7 -1 5 C-0.35232207 2.42938689 -0.35232207 2.42938689 0 0 Z " fill="#8EAEC0" transform="translate(245,227)"/>
<path d="M0 0 C3.84108078 0.26798238 5.736021 0.794683 8.8125 3.1875 C11.205317 6.263979 11.73201762 8.15891922 12 12 C11.34 12 10.68 12 10 12 C9.649375 10.88625 9.29875 9.7725 8.9375 8.625 C8.19669368 6.66818521 8.19669368 6.66818521 7 5 C3.44107712 3.46954015 3.44107712 3.46954015 0 3 C0 2.01 0 1.02 0 0 Z " fill="#E9F1F6" transform="translate(332,122)"/>
<path d="M0 0 C0.33 0 0.66 0 1 0 C1 2.31 1 4.62 1 7 C3.64 7 6.28 7 9 7 C8 10 8 10 6 11 C4.00039988 11.039992 1.99952758 11.04346799 0 11 C0 7.37 0 3.74 0 0 Z " fill="#E2EDF7" transform="translate(278,157)"/>
<path d="M0 0 C0.33 0 0.66 0 1 0 C1 1.98 1 3.96 1 6 C-0.65 6 -2.3 6 -4 6 C-4.33 7.32 -4.66 8.64 -5 10 C-6.32 10.33 -7.64 10.66 -9 11 C-9.33 10.34 -9.66 9.68 -10 9 C-9.01 8.34 -8.02 7.68 -7 7 C-6.67 6.01 -6.34 5.02 -6 4 C-4.35 3.67 -2.7 3.34 -1 3 C-0.67 2.01 -0.34 1.02 0 0 Z " fill="#84A6BB" transform="translate(288,266)"/>
<path d="M0 0 C2.97 0 5.94 0 9 0 C9 1.32 9 2.64 9 4 C6.03 4 3.06 4 0 4 C0 2.68 0 1.36 0 0 Z " fill="#B5D2EB" transform="translate(290,160)"/>
<path d="M0 0 C0.66 0.33 1.32 0.66 2 1 C0.35 3.64 -1.3 6.28 -3 9 C-4.65 7.35 -6.3 5.7 -8 4 C-6.71349294 3.30289269 -5.42059335 2.61757124 -4.125 1.9375 C-3.40570313 1.55464844 -2.68640625 1.17179688 -1.9453125 0.77734375 C-1.30335937 0.52082031 -0.66140625 0.26429688 0 0 Z " fill="#85ADD9" transform="translate(57,242)"/>
<path d="M0 0 C2.01822917 0.06510417 4.03645833 0.13020833 6.0546875 0.1953125 C6.0546875 0.8553125 6.0546875 1.5153125 6.0546875 2.1953125 C3.4146875 2.1953125 0.7746875 2.1953125 -1.9453125 2.1953125 C-1.9453125 4.5053125 -1.9453125 6.8153125 -1.9453125 9.1953125 C-2.9353125 8.5353125 -3.9253125 7.8753125 -4.9453125 7.1953125 C-3.87057023 0.38861147 -3.87057023 0.38861147 0 0 Z " fill="#233840" transform="translate(164.9453125,25.8046875)"/>
<path d="M0 0 C0.66 0 1.32 0 2 0 C2 3.96 2 7.92 2 12 C0.68 12 -0.64 12 -2 12 C-2.33 12.66 -2.66 13.32 -3 14 C-3.33 12.68 -3.66 11.36 -4 10 C-2.68 10 -1.36 10 0 10 C0 6.7 0 3.4 0 0 Z " fill="#8CABBD" transform="translate(115,228)"/>
<path d="M0 0 C2.97 0 5.94 0 9 0 C10 3 10 3 9.0625 5.1875 C8.711875 5.785625 8.36125 6.38375 8 7 C8 5.68 8 4.36 8 3 C5.36 3 2.72 3 0 3 C0 2.01 0 1.02 0 0 Z " fill="#CADFF2" transform="translate(302,157)"/>
<path d="M0 0 C3.16115776 1.36983503 3.9927092 1.9890638 6 5 C1.545 5.495 1.545 5.495 -3 6 C-3 3 -3 3 -1.5 1.3125 C-0.7575 0.6628125 -0.7575 0.6628125 0 0 Z " fill="#A2C8DD" transform="translate(94,115)"/>
<path d="M0 0 C-0.78375 0.53625 -1.5675 1.0725 -2.375 1.625 C-5.33426299 4.30242842 -6.04608256 6.18433025 -7 10 C-7.66 9.67 -8.32 9.34 -9 9 C-8.6875 5.625 -8.6875 5.625 -8 2 C-4.77208445 -0.1519437 -3.71599191 -0.20086443 0 0 Z " fill="#7A99AA" transform="translate(281,232)"/>
<path d="M0 0 C0.33 0 0.66 0 1 0 C1.33 5.94 1.66 11.88 2 18 C0.35 18.33 -1.3 18.66 -3 19 C-3.33 18.34 -3.66 17.68 -4 17 C-3.01 16.67 -2.02 16.34 -1 16 C-0.67 10.72 -0.34 5.44 0 0 Z " fill="#988E9B" transform="translate(343,258)"/>
<path d="M0 0 C0 2.97 0 5.94 0 9 C-2.5 7.6875 -2.5 7.6875 -5 6 C-5 5.01 -5 4.02 -5 3 C-1.55555556 0 -1.55555556 0 0 0 Z " fill="#F8F9F0" transform="translate(209,129)"/>
<path d="M0 0 C2.0625 0.4375 2.0625 0.4375 4 1 C4.33 2.32 4.66 3.64 5 5 C3.35 5.33 1.7 5.66 0 6 C-0.38218767 4.34385343 -0.71395102 2.67542976 -1 1 C-0.67 0.67 -0.34 0.34 0 0 Z " fill="#EAF6F7" transform="translate(77,50)"/>
<path d="M0 0 C1.125 3.75 1.125 3.75 0 6 C-1.98 6 -3.96 6 -6 6 C-5.67 5.01 -5.34 4.02 -5 3 C-5 3.66 -5 4.32 -5 5 C-4.01 5 -3.02 5 -2 5 C-2 4.01 -2 3.02 -2 2 C-3.32 2 -4.64 2 -6 2 C-6 1.34 -6 0.68 -6 0 C-3.50907189 -1.24546405 -2.58919267 -0.7767578 0 0 Z " fill="#11A3B3" transform="translate(72,40)"/>
<path d="M0 0 C0.33 0 0.66 0 1 0 C1 2.64 1 5.28 1 8 C-0.65 8 -2.3 8 -4 8 C-4 7.01 -4 6.02 -4 5 C-5.65 5 -7.3 5 -9 5 C-9 4.67 -9 4.34 -9 4 C-6.03 4 -3.06 4 0 4 C0 2.68 0 1.36 0 0 Z " fill="#F9FBFC" transform="translate(311,160)"/>
<path d="M0 0 C1.98362069 2.91708924 1.9876191 4.12380904 1.625 7.75 C1.41875 8.8225 1.2125 9.895 1 11 C0.01 11.33 -0.98 11.66 -2 12 C-2 9.03 -2 6.06 -2 3 C-3.65 3 -5.3 3 -7 3 C-7 2.67 -7 2.34 -7 2 C-4.69 2 -2.38 2 0 2 C0 1.34 0 0.68 0 0 Z " fill="#866465" transform="translate(162,51)"/>
<path d="M0 0 C0.8125 1.6875 0.8125 1.6875 1 4 C-1.25 6.75 -1.25 6.75 -4 9 C-4.99 9 -5.98 9 -7 9 C-7 7 -7 7 -4.625 4.5 C-3.75875 3.675 -2.8925 2.85 -2 2 C-1.34 1.34 -0.68 0.68 0 0 Z " fill="#83A3B5" transform="translate(316,171)"/>
<path d="M0 0 C1.65 0 3.3 0 5 0 C5 1.65 5 3.3 5 5 C3.0625 5.5625 3.0625 5.5625 1 6 C0 5 0 5 -0.0625 2.4375 C-0.041875 1.633125 -0.02125 0.82875 0 0 Z " fill="#F6F9FA" transform="translate(330,131)"/>
<path d="M0 0 C2.24497221 2.24497221 2.37003419 2.96027349 2.75 6 C2.84796875 6.70125 2.9459375 7.4025 3.046875 8.125 C3 10 3 10 1 12 C0.34 12 -0.32 12 -1 12 C-0.67 8.04 -0.34 4.08 0 0 Z " fill="#92B2C4" transform="translate(103,49)"/>
<path d="M0 0 C1.6415049 3.2830098 0.51888624 6.42545033 0 10 C-0.99 10 -1.98 10 -3 10 C-3.75 7.25 -3.75 7.25 -4 4 C-2.0625 1.625 -2.0625 1.625 0 0 Z " fill="#9AC3D0" transform="translate(164,166)"/>
<path d="M0 0 C0.33 0 0.66 0 1 0 C1 2.31 1 4.62 1 7 C2.98 7 4.96 7 7 7 C7 7.33 7 7.66 7 8 C3.04 8 -0.92 8 -5 8 C-4.34 7.67 -3.68 7.34 -3 7 C-2.67 6.01 -2.34 5.02 -2 4 C-1.34 4 -0.68 4 0 4 C0 2.68 0 1.36 0 0 Z " fill="#FEFEFE" transform="translate(289,160)"/>
<path d="M0 0 C1.65 1.32 3.3 2.64 5 4 C4 7 4 7 0 9 C0 6.03 0 3.06 0 0 Z " fill="#FCFCF9" transform="translate(191,129)"/>
<path d="M0 0 C0.33 0.66 0.66 1.32 1 2 C-0.11328125 4.015625 -0.11328125 4.015625 -2 6 C-4.91796875 6.171875 -4.91796875 6.171875 -8.1875 5.75 C-9.81751953 5.55664062 -9.81751953 5.55664062 -11.48046875 5.359375 C-12.31191406 5.24078125 -13.14335937 5.1221875 -14 5 C-14 4.67 -14 4.34 -14 4 C-13.32453125 3.96261719 -12.6490625 3.92523438 -11.953125 3.88671875 C-11.06109375 3.82097656 -10.1690625 3.75523438 -9.25 3.6875 C-8.36828125 3.62949219 -7.4865625 3.57148437 -6.578125 3.51171875 C-3.67696226 2.9358819 -2.20774393 1.92403852 0 0 Z " fill="#7696A6" transform="translate(190,62)"/>
<path d="M0 0 C1.14626322 0.97866338 2.29199788 1.95794587 3.4375 2.9375 C4.07558594 3.48277344 4.71367187 4.02804688 5.37109375 4.58984375 C6.26991149 5.36795695 7.15936528 6.15936528 8 7 C8.04063832 8.66617115 8.042721 10.33388095 8 12 C7.4225 11.2575 6.845 10.515 6.25 9.75 C4.10390345 7.00740053 4.10390345 7.00740053 1.75 4.875 C0 3 0 3 0 0 Z " fill="#A9BDCD" transform="translate(343,247)"/>
<path d="M0 0 C1.98 0 3.96 0 6 0 C5.67 1.65 5.34 3.3 5 5 C4.67 4.01 4.34 3.02 4 2 C3.01 2.495 3.01 2.495 2 3 C1.67 3.99 1.34 4.98 1 6 C0.34 6.99 -0.32 7.98 -1 9 C-0.67 6.03 -0.34 3.06 0 0 Z " fill="#BED7EB" transform="translate(236,231)"/>
<path d="M0 0 C0.33 0 0.66 0 1 0 C1 3.63 1 7.26 1 11 C2.32 10.67 3.64 10.34 5 10 C3.71937515 11.7074998 2.38232443 13.37373596 1 15 C0.34 15 -0.32 15 -1 15 C-0.67 10.05 -0.34 5.1 0 0 Z " fill="#94ADB4" transform="translate(169,146)"/>
<path d="M0 0 C6.0546875 -0.1953125 6.0546875 -0.1953125 8 0 C8.66 0.66 9.32 1.32 10 2 C7.35261084 3.4606285 6.10551666 4 3 4 C3 3.34 3 2.68 3 2 C2.01 2 1.02 2 0 2 C0 1.34 0 0.68 0 0 Z " fill="#233B44" transform="translate(274,227)"/>
<path d="M0 0 C1.98 0 3.96 0 6 0 C5.67 1.98 5.34 3.96 5 6 C4.01 5.34 3.02 4.68 2 4 C2 3.34 2 2.68 2 2 C1.34 2 0.68 2 0 2 C0 1.34 0 0.68 0 0 Z " fill="#5EBAC5" transform="translate(372,24)"/>
<path d="M0 0 C2.475 0.495 2.475 0.495 5 1 C5.66 2.98 6.32 4.96 7 7 C6.01 7 5.02 7 4 7 C3.896875 6.360625 3.79375 5.72125 3.6875 5.0625 C3.460625 4.381875 3.23375 3.70125 3 3 C2.01 2.67 1.02 2.34 0 2 C0 1.34 0 0.68 0 0 Z " fill="#EBF3F8" transform="translate(333,127)"/>
<path d="M0 0 C1.98 0.495 1.98 0.495 4 1 C3.67 2.32 3.34 3.64 3 5 C1.68 4.67 0.36 4.34 -1 4 C-0.67 2.68 -0.34 1.36 0 0 Z " fill="#F65340" transform="translate(313,50)"/>
<path d="M0 0 C2 2 2 2 2.125 5.125 C2.08375 6.07375 2.0425 7.0225 2 8 C1.01 8.495 1.01 8.495 0 9 C0 8.34 0 7.68 0 7 C-1.65 7 -3.3 7 -5 7 C-5 6.67 -5 6.34 -5 6 C-3.35 6 -1.7 6 0 6 C0 4.02 0 2.04 0 0 Z " fill="#7797A8" transform="translate(287,256)"/>
<path d="M0 0 C0.66 0 1.32 0 2 0 C2 1.65 2 3.3 2 5 C-0.31 5 -2.62 5 -5 5 C-5 4.34 -5 3.68 -5 3 C-3.35 3 -1.7 3 0 3 C0 2.01 0 1.02 0 0 Z " fill="#F0F7FB" transform="translate(219,225)"/>
<path d="M0 0 C2.97 0 5.94 0 9 0 C9 0.33 9 0.66 9 1 C6.69 1.66 4.38 2.32 2 3 C1.67 4.98 1.34 6.96 1 9 C0.67 9 0.34 9 0 9 C0 6.03 0 3.06 0 0 Z " fill="#5C90BB" transform="translate(277,137)"/>
<path d="M0 0 C0.66 0 1.32 0 2 0 C2.66 1.65 3.32 3.3 4 5 C3.34 5.66 2.68 6.32 2 7 C2 6.34 2 5.68 2 5 C0.35 4.67 -1.3 4.34 -3 4 C-2.67 3.34 -2.34 2.68 -2 2 C-1.34 2 -0.68 2 0 2 C0 1.34 0 0.68 0 0 Z " fill="#C5E2F0" transform="translate(231,220)"/>
<path d="M0 0 C2.02045442 0.60183749 4.02111039 1.27306096 6 2 C6.33 2.66 6.66 3.32 7 4 C4.69 4 2.38 4 0 4 C0 2.68 0 1.36 0 0 Z " fill="#21373E" transform="translate(149,138)"/>
<path d="M0 0 C0.99 0.33 1.98 0.66 3 1 C2.67 1.66 2.34 2.32 2 3 C-2.29 3 -6.58 3 -11 3 C-11 2.67 -11 2.34 -11 2 C-10.28972656 1.93941406 -9.57945312 1.87882812 -8.84765625 1.81640625 C-7.46900391 1.69072266 -7.46900391 1.69072266 -6.0625 1.5625 C-5.14597656 1.48128906 -4.22945313 1.40007812 -3.28515625 1.31640625 C-1.03840268 1.23955024 -1.03840268 1.23955024 0 0 Z " fill="#334748" transform="translate(311,122)"/>
<path d="M0 0 C1.98 0 3.96 0 6 0 C6 0.99 6 1.98 6 3 C4.02 3 2.04 3 0 3 C0 2.01 0 1.02 0 0 Z " fill="#D9E9F2" transform="translate(239,246)"/>
<path d="M0 0 C0.66 0 1.32 0 2 0 C2 0.66 2 1.32 2 2 C2.99 2 3.98 2 5 2 C4.67 3.32 4.34 4.64 4 6 C3.34 5.67 2.68 5.34 2 5 C1.01 5 0.02 5 -1 5 C-0.67 3.35 -0.34 1.7 0 0 Z " fill="#C2E0F0" transform="translate(242,217)"/>
<path d="M0 0 C0.66 0.33 1.32 0.66 2 1 C1.67 2.32 1.34 3.64 1 5 C-0.32 5.33 -1.64 5.66 -3 6 C-3.33 5.34 -3.66 4.68 -4 4 C-2.68 2.68 -1.36 1.36 0 0 Z " fill="#8AACBF" transform="translate(336,133)"/>
<path d="M0 0 C1.42944945 2.35438733 2.08661261 3.48032433 1.625 6.25 C1.41875 6.8275 1.2125 7.405 1 8 C-0.32 7.67 -1.64 7.34 -3 7 C-2.34 6.34 -1.68 5.68 -1 5 C-0.35232207 2.42938689 -0.35232207 2.42938689 0 0 Z " fill="#909BAB" transform="translate(317,49)"/>
<path d="M0 0 C0.33 0 0.66 0 1 0 C1 1.98 1 3.96 1 6 C-1.31 5.67 -3.62 5.34 -6 5 C-6 4.67 -6 4.34 -6 4 C-4.35 3.67 -2.7 3.34 -1 3 C-0.67 2.01 -0.34 1.02 0 0 Z " fill="#7D9EB2" transform="translate(288,266)"/>
<path d="M0 0 C0.99 0 1.98 0 3 0 C2.67 2.31 2.34 4.62 2 7 C1.34 7 0.68 7 0 7 C0 4.69 0 2.38 0 0 Z " fill="#DAECF6" transform="translate(219,214)"/>
<path d="M0 0 C0.99 1.32 1.98 2.64 3 4 C1.02 4.99 1.02 4.99 -1 6 C-1.66 4.68 -2.32 3.36 -3 2 C-2.01 2 -1.02 2 0 2 C0 1.34 0 0.68 0 0 Z " fill="#96BED3" transform="translate(123,160)"/>
<path d="M0 0 C0.33 0.66 0.66 1.32 1 2 C1.66 2 2.32 2 3 2 C3 3.65 3 5.3 3 7 C2.01 7 1.02 7 0 7 C0 4.69 0 2.38 0 0 Z " fill="#0E262F" transform="translate(156,147)"/>
</svg>
