<?xml version="1.0" encoding="UTF-8"?>
<svg version="1.1" xmlns="http://www.w3.org/2000/svg" width="512" height="512">
<path d="M0 0 C1.49384678 -0.0039084 2.98769249 -0.00824725 4.48153687 -0.01298523 C7.58912785 -0.02037118 10.6966051 -0.02021367 13.80419922 -0.01489258 C16.93976214 -0.01027001 20.07493642 -0.01715735 23.21044922 -0.03540039 C62.13757478 -0.25980474 99.87867383 2.99696465 129.3359375 31.30078125 C152.05489746 55.24278473 155.74690759 84.93394441 155.03027344 116.56640625 C154.12255901 142.27825781 144.92006249 166.12141576 126.3359375 184.171875 C117.3416302 192.02747994 106.30071911 197.05598173 95.12890625 201.01953125 C94.29552734 201.31601563 93.46214844 201.6125 92.60351562 201.91796875 C90.9730885 202.48969339 89.33783421 203.04790613 87.69726562 203.58984375 C80.90665799 205.94681961 74.95291645 209.21906283 70.8984375 215.30078125 C70.28688359 218.76625343 70.22915075 221.15865369 72.04296875 224.25390625 C76.22199661 229.41922536 81.34501057 232.81102833 86.90234375 236.36328125 C97.2438853 243.05090134 108.07016882 251.19672916 111.53637695 263.57983398 C113.30891745 272.77938288 113.25488319 282.02012143 113.27929688 291.35327148 C113.28884442 293.53035111 113.32259219 295.70604601 113.359375 297.8828125 C113.36759277 299.16389893 113.37581055 300.44498535 113.38427734 301.76489258 C114.09925848 306.68183077 116.25413999 309.76522485 119.84765625 313.12109375 C124.04543731 315.53581733 129.27160203 315.90162641 133.96484375 314.828125 C137.67475708 313.36178777 140.47249883 311.44551656 142.8984375 308.30078125 C145.19996419 302.75052916 145.24706177 297.57236788 145.2890625 291.66601562 C145.46799779 286.13393288 146.74191085 282.87487532 149.8984375 278.30078125 C155.5647509 273.81494981 159.73982705 272.81545173 166.8984375 273.30078125 C172.86514856 275.08032665 176.57848591 278.12031988 179.8984375 283.30078125 C184.81267533 298.66259444 181.78563684 320.90991692 174.7734375 335.11328125 C167.60175396 347.38416597 157.77374245 354.07842869 144.37890625 358.44921875 C126.88442828 362.72957363 106.04758932 360.44188748 90.171875 351.765625 C79.49258567 344.88463961 73.05265575 335.54720858 69.8984375 323.30078125 C69.3822249 319.83090863 69.12372102 316.3628559 68.8984375 312.86328125 C67.95708073 298.30434302 63.96482479 287.50557707 53.28515625 277.2734375 C45.12231899 270.52673894 35.41256518 265.82642036 25.8984375 261.30078125 C25.5684375 261.63078125 25.2384375 261.96078125 24.8984375 262.30078125 C25.44371094 262.92082031 25.98898437 263.54085938 26.55078125 264.1796875 C45.06183359 285.91830794 54.96628082 312.58729969 52.8984375 341.30078125 C51.43618667 354.31768079 45.67944936 365.19054204 38.8984375 376.17578125 C36.29521456 380.79098667 35.96622649 385.11591238 36.8984375 390.30078125 C38.84779069 394.44315677 41.42555138 396.77536311 44.8984375 399.61328125 C49.7215766 403.69855205 52.12864041 408.12302829 53.2734375 414.3359375 C53.62432578 419.85146269 51.78720835 424.65748086 48.8984375 429.30078125 C45.66999434 432.85724805 41.60728615 435.93153384 36.76708984 436.59130859 C16.38147569 436.9968406 16.38147569 436.9968406 8.8984375 432.30078125 C7.72087891 431.57181641 7.72087891 431.57181641 6.51953125 430.828125 C-1.15351655 425.48100932 -5.62000513 418.51060641 -7.72875977 409.40893555 C-8.33374085 405.98784082 -8.39891984 402.64258146 -8.3515625 399.17578125 C-8.34406982 398.43352295 -8.33657715 397.69126465 -8.32885742 396.92651367 C-8.11981529 386.02946255 -6.02352135 375.80122709 -3.5390625 365.23828125 C-1.65703429 357.23391108 -0.27438716 349.55027816 -0.1015625 341.30078125 C-0.05128906 340.3984375 -0.00101563 339.49609375 0.05078125 338.56640625 C0.72058022 320.02637069 -7.02386316 303.61997949 -19.328125 290.19140625 C-27.8977565 281.1663837 -37.89364783 272.90473858 -49.1015625 267.30078125 C-49.18792969 268.22117187 -49.27429688 269.1415625 -49.36328125 270.08984375 C-51.28189976 287.3750123 -58.03739198 300.60696197 -67.47265625 314.90234375 C-79.68066911 333.41621173 -85.78345589 351.24174407 -81.80859375 373.4609375 C-80.80421775 377.49508863 -79.13964249 380.68483288 -77.1015625 384.30078125 C-76.7715625 385.29078125 -76.4415625 386.28078125 -76.1015625 387.30078125 C-70.09496431 390.9890433 -62.72931238 392.26901323 -55.8515625 393.17578125 C-50.36351564 394.04231497 -47.75524583 395.08499279 -44.1015625 399.30078125 C-41.07183219 404.55231379 -40.19336407 409.36177581 -41.1015625 415.30078125 C-42.54060963 419.90247998 -44.34532562 422.68633879 -48.1015625 425.73828125 C-60.4087882 432.14829463 -78.29331175 428.33165702 -90.83203125 424.45703125 C-97.3299764 422.11978586 -102.65124571 418.48765743 -108.1015625 414.30078125 C-108.72933594 413.83929688 -109.35710937 413.3778125 -110.00390625 412.90234375 C-125.40590003 400.81823978 -132.34840699 380.09841028 -135.4140625 361.42578125 C-138.17924171 336.67084354 -136.16093892 311.39121469 -130.1015625 287.30078125 C-130.68164062 287.50574219 -131.26171875 287.71070313 -131.859375 287.921875 C-132.64054687 288.19128906 -133.42171875 288.46070313 -134.2265625 288.73828125 C-135.37511719 289.13853516 -135.37511719 289.13853516 -136.546875 289.546875 C-141.53613357 291.0192403 -146.40624353 291.41276019 -151.57226562 291.59057617 C-167.70753112 292.16238848 -183.76877741 293.33033585 -195.6015625 305.61328125 C-201.96695873 313.43958809 -203.02566409 321.39597403 -202.1015625 331.30078125 C-200.04876537 343.45112101 -193.00131906 353.07403914 -184.18969727 361.29248047 C-180.47916773 364.75947098 -178.38138504 366.99387214 -177.765625 372.0703125 C-177.67964901 378.76784202 -177.96765637 382.937876 -182.1015625 388.30078125 C-185.92636589 392.02493192 -189.64287307 394.04821975 -195.02734375 394.44140625 C-206.97828388 394.00444317 -217.08820648 385.41068372 -225.1015625 377.30078125 C-226.14763672 376.28757812 -226.14763672 376.28757812 -227.21484375 375.25390625 C-243.15891136 358.78352961 -247.62915493 335.19637558 -247.31640625 313.04296875 C-246.68133174 293.65939033 -239.58387637 276.90737626 -225.55078125 263.3984375 C-221.37702754 259.8237872 -216.86541759 257.01809514 -212.1015625 254.30078125 C-211.369375 253.86121094 -210.6371875 253.42164063 -209.8828125 252.96875 C-194.12833954 244.23167433 -174.90332952 241.18209748 -157.16015625 239.8203125 C-156.16226074 239.74200195 -155.16436523 239.66369141 -154.13623047 239.58300781 C-152.19516846 239.4395089 -150.25264053 239.31433538 -148.30908203 239.20996094 C-143.05473571 238.87709607 -143.05473571 238.87709607 -138.50390625 236.421875 C-136.561088 233.48329476 -136.52613426 231.75335068 -137.1015625 228.30078125 C-139.09914518 225.78976138 -140.30271061 224.46812401 -143.48268127 223.80198669 C-144.36439499 223.80215286 -145.2461087 223.80231903 -146.15454102 223.80249023 C-147.15981339 223.79245468 -148.16508575 223.78241913 -149.20082092 223.77207947 C-150.28310471 223.78026199 -151.36538849 223.78844452 -152.48046875 223.796875 C-153.60291489 223.78745377 -154.72536102 223.77803253 -155.88182068 223.76832581 C-159.47608574 223.73963004 -163.06969212 223.73659748 -166.6640625 223.73828125 C-170.23334363 223.73466104 -173.80214098 223.72494403 -177.37132263 223.69752502 C-179.5907134 223.68088759 -181.81026211 223.67774028 -184.02967834 223.6905365 C-200.83902007 223.57791013 -213.32217572 217.01934503 -225.1015625 205.30078125 C-225.71644531 204.72070312 -226.33132812 204.140625 -226.96484375 203.54296875 C-242.03656226 188.09012632 -247.50360853 164.56494312 -247.33374023 143.67114258 C-246.85369877 122.18024082 -240.55908932 101.51406085 -226.1015625 85.30078125 C-225.47378906 84.59050781 -224.84601563 83.88023438 -224.19921875 83.1484375 C-210.13202371 68.16068982 -189.05851656 60.99550737 -168.8828125 60.0625 C-153.1670314 59.65971651 -153.1670314 59.65971651 -148.1015625 64.30078125 C-144.44670654 68.57198866 -142.86198025 73.67580668 -143.1015625 79.30078125 C-144.01428657 84.95006286 -146.04955817 89.54829384 -150.625 93.1015625 C-154.56653003 95.01015827 -158.75629829 95.52657899 -163.04345703 96.19555664 C-173.00528527 97.80271311 -181.72532526 102.37820613 -187.79296875 110.58984375 C-193.60964401 119.64423464 -195.08872358 127.72207081 -193.1015625 138.30078125 C-190.50951393 148.4999289 -185.7017609 156.13137667 -176.9765625 162.11328125 C-160.82119914 171.70413746 -141.31403538 172.25232777 -123.390625 168.21484375 C-115.55663603 166.03770192 -110.00672425 162.5547681 -105.3515625 155.73828125 C-99.24685232 143.83409641 -103.96105862 129.81242373 -107.69140625 117.953125 C-114.22485493 96.83080606 -110.67571593 71.91132527 -101.1015625 52.30078125 C-88.71643973 29.01988592 -68.38587379 13.21363449 -43.4453125 5.11328125 C-29.14557301 1.0276414 -14.80777371 -0.01659739 0 0 Z M-72.4140625 127.86328125 C-75.36598832 132.1271741 -75.61114687 136.25301152 -75.1015625 141.30078125 C-73.27227469 146.68103952 -69.94288135 150.40722704 -65.1015625 153.30078125 C-60.36664331 154.90742349 -56.4154345 154.77526367 -51.8515625 152.73828125 C-47.12437917 150.0208585 -43.85023516 146.54679923 -42.1015625 141.30078125 C-41.51438598 135.3115807 -42.79589176 131.20597009 -46.1015625 126.30078125 C-50.98272765 121.65772171 -55.06856856 120.94350112 -61.59765625 121.01953125 C-66.52795647 121.57332472 -69.21377013 124.31701133 -72.4140625 127.86328125 Z M-19.1015625 125.30078125 C-23.23646156 130.63262478 -24.55828771 134.56408443 -24.1015625 141.30078125 C-21.95303253 147.26892004 -18.16119145 150.48154241 -12.7890625 153.67578125 C-8.6607617 154.6358512 -5.16184752 154.57552189 -1.1015625 153.30078125 C2.85551093 150.78202973 5.93860256 147.86051303 8.3984375 143.86328125 C9.42734478 138.59013144 9.74824097 134.33775865 7.2109375 129.55078125 C4.57036895 125.83971194 1.9729829 123.33805395 -2.1015625 121.30078125 C-8.94578953 120.53753107 -13.58691878 121.10965202 -19.1015625 125.30078125 Z " fill="#20beda" transform="translate(289.1015625,41.69921875)"/>
</svg>
